<svg id="svg" version="1.1" xmlns="http://www.w3.org/2000/svg" xmlns:xlink="http://www.w3.org/1999/xlink" width="400" height="407.1570576540756" viewBox="0, 0, 400,407.1570576540756"><g id="svgg"><path id="path0" d="M371.200 15.200 C 371.200 15.420,370.840 15.600,370.400 15.600 C 369.960 15.600,369.600 15.780,369.600 16.000 C 369.600 16.220,369.240 16.400,368.800 16.400 C 368.360 16.400,368.000 16.580,368.000 16.800 C 368.000 17.020,367.640 17.200,367.200 17.200 C 366.760 17.200,366.400 17.380,366.400 17.600 C 366.400 17.820,366.040 18.000,365.600 18.000 C 365.160 18.000,364.800 18.180,364.800 18.400 C 364.800 18.620,364.080 18.800,363.200 18.800 C 362.320 18.800,361.600 18.980,361.600 19.200 C 361.600 19.420,361.251 19.600,360.824 19.600 C 360.397 19.600,359.936 19.780,359.800 20.000 C 359.664 20.220,359.113 20.400,358.576 20.400 C 358.039 20.400,357.600 20.580,357.600 20.800 C 357.600 21.020,357.240 21.200,356.800 21.200 C 356.360 21.200,356.000 21.380,356.000 21.600 C 356.000 21.820,355.640 22.000,355.200 22.000 C 354.760 22.000,354.400 22.180,354.400 22.400 C 354.400 22.620,354.040 22.800,353.600 22.800 C 353.160 22.800,352.800 22.980,352.800 23.200 C 352.800 23.420,352.445 23.600,352.012 23.600 C 351.579 23.600,350.583 23.960,349.800 24.400 C 349.017 24.840,348.019 25.200,347.582 25.200 C 347.146 25.200,346.432 25.380,345.995 25.600 C 345.558 25.820,344.842 26.180,344.405 26.400 C 343.968 26.620,343.338 26.800,343.005 26.800 C 342.672 26.800,342.400 26.980,342.400 27.200 C 342.400 27.420,342.040 27.600,341.600 27.600 C 341.160 27.600,340.800 27.780,340.800 28.000 C 340.800 28.220,340.440 28.400,340.000 28.400 C 339.560 28.400,339.200 28.580,339.200 28.800 C 339.200 29.020,338.885 29.200,338.500 29.199 C 336.722 29.196,334.400 30.952,334.400 32.299 C 334.400 33.015,334.580 33.600,334.800 33.600 C 335.020 33.600,335.200 33.960,335.200 34.400 C 335.200 34.840,335.380 35.200,335.600 35.200 C 335.820 35.200,336.000 35.536,336.000 35.947 C 336.000 36.754,337.524 40.760,338.067 41.380 C 338.250 41.589,338.400 42.084,338.400 42.480 C 338.400 42.876,338.580 43.200,338.800 43.200 C 339.020 43.200,339.200 43.436,339.200 43.725 C 339.200 44.013,339.560 44.636,340.000 45.108 C 340.440 45.580,340.800 46.323,340.800 46.760 C 340.800 47.196,340.980 47.664,341.200 47.800 C 341.420 47.936,341.600 48.397,341.600 48.824 C 341.600 49.251,341.780 49.600,342.000 49.600 C 342.220 49.600,342.400 50.052,342.400 50.605 C 342.400 51.158,342.580 51.968,342.800 52.405 C 343.020 52.842,343.380 53.558,343.600 53.995 C 343.820 54.432,344.000 55.062,344.000 55.395 C 344.000 55.728,344.180 56.000,344.400 56.000 C 344.620 56.000,344.800 56.360,344.800 56.800 C 344.800 57.240,344.980 57.600,345.200 57.600 C 345.420 57.600,345.600 57.960,345.600 58.400 C 345.600 58.840,345.780 59.200,346.000 59.200 C 346.220 59.200,346.400 59.639,346.400 60.176 C 346.400 60.713,346.580 61.264,346.800 61.400 C 347.020 61.536,347.200 61.997,347.200 62.424 C 347.200 62.851,347.380 63.200,347.600 63.200 C 347.820 63.200,348.000 63.560,348.000 64.000 C 348.000 64.440,348.180 64.800,348.400 64.800 C 348.620 64.800,348.800 65.610,348.800 66.600 C 348.800 67.590,348.980 68.400,349.200 68.400 C 349.420 68.400,349.600 68.839,349.600 69.376 C 349.600 69.913,349.780 70.464,350.000 70.600 C 350.220 70.736,350.400 71.377,350.400 72.024 C 350.400 72.671,350.580 73.200,350.800 73.200 C 351.020 73.200,351.200 73.740,351.200 74.400 C 351.200 75.060,351.380 75.600,351.600 75.600 C 351.820 75.600,352.000 76.129,352.000 76.776 C 352.000 77.423,352.180 78.064,352.400 78.200 C 352.620 78.336,352.800 79.067,352.800 79.824 C 352.800 80.581,352.980 81.200,353.200 81.200 C 353.420 81.200,353.600 82.100,353.600 83.200 C 353.600 84.300,353.780 85.200,354.000 85.200 C 354.240 85.200,354.400 86.792,354.400 89.176 C 354.400 91.396,354.223 93.262,354.000 93.400 C 353.780 93.536,353.600 94.177,353.600 94.824 C 353.600 95.471,353.420 96.000,353.200 96.000 C 352.980 96.000,352.800 96.360,352.800 96.800 C 352.800 97.240,352.620 97.600,352.400 97.600 C 352.180 97.600,352.000 97.804,352.000 98.053 C 352.000 99.271,347.880 102.430,343.600 104.494 C 342.610 104.972,341.740 105.506,341.667 105.681 C 341.593 105.857,340.774 106.000,339.847 106.000 C 338.919 106.000,337.940 106.220,337.670 106.490 C 337.283 106.877,337.015 106.877,336.395 106.490 C 335.964 106.220,335.336 106.000,334.999 106.000 C 334.025 106.000,331.200 105.035,331.200 104.703 C 331.200 104.536,330.840 104.400,330.400 104.400 C 329.960 104.400,329.600 104.239,329.600 104.042 C 329.600 103.845,328.385 103.100,326.900 102.387 C 325.415 101.674,324.110 100.954,324.000 100.786 C 323.569 100.131,315.810 95.168,314.835 94.923 C 314.266 94.781,312.919 94.045,311.842 93.288 C 310.764 92.531,309.684 91.870,309.442 91.818 C 309.199 91.767,308.100 91.320,307.000 90.826 C 303.621 89.308,302.306 88.882,299.400 88.364 C 297.860 88.089,296.429 87.714,296.220 87.532 C 296.011 87.349,294.976 87.200,293.920 87.200 C 292.864 87.200,292.000 87.020,292.000 86.800 C 292.000 86.567,290.667 86.400,288.800 86.400 C 286.933 86.400,285.600 86.233,285.600 86.000 C 285.600 85.753,283.533 85.600,280.200 85.600 C 276.867 85.600,274.800 85.753,274.800 86.000 C 274.800 86.229,273.600 86.400,272.000 86.400 C 270.400 86.400,269.200 86.571,269.200 86.800 C 269.200 87.020,268.581 87.200,267.824 87.200 C 267.067 87.200,266.348 87.360,266.227 87.556 C 266.106 87.751,265.421 88.009,264.704 88.127 C 261.889 88.593,260.905 88.901,258.400 90.103 C 249.691 94.281,241.426 104.183,240.564 111.473 C 240.439 112.533,240.177 113.760,239.983 114.200 C 239.634 114.990,239.188 119.680,239.204 122.400 C 239.219 124.826,239.901 130.868,240.560 134.400 C 240.908 136.270,241.244 138.070,241.306 138.400 C 241.517 139.533,242.867 143.800,243.233 144.495 C 243.435 144.877,243.600 145.462,243.600 145.795 C 243.600 146.128,243.780 146.400,244.000 146.400 C 244.220 146.400,244.400 146.940,244.400 147.600 C 244.400 148.260,244.580 148.800,244.800 148.800 C 245.020 148.800,245.200 149.252,245.200 149.805 C 245.200 150.358,245.359 151.123,245.553 151.505 C 246.357 153.085,246.751 154.287,246.961 155.800 C 247.083 156.680,247.381 158.210,247.624 159.200 C 249.125 165.337,248.521 168.000,245.629 168.000 C 244.733 168.000,244.000 168.180,244.000 168.400 C 244.000 168.620,243.291 168.800,242.424 168.800 C 241.557 168.800,240.736 168.980,240.600 169.200 C 240.464 169.420,239.294 169.600,238.000 169.600 C 236.706 169.600,235.536 169.780,235.400 170.000 C 235.264 170.220,234.364 170.400,233.400 170.400 C 232.436 170.400,231.536 170.580,231.400 170.800 C 231.264 171.020,230.141 171.200,228.905 171.200 C 226.786 171.200,224.680 171.654,223.105 172.449 C 222.723 172.642,221.868 172.800,221.205 172.800 C 220.542 172.800,220.000 172.980,220.000 173.200 C 220.000 173.420,219.471 173.600,218.824 173.600 C 218.177 173.600,217.536 173.780,217.400 174.000 C 217.264 174.220,216.713 174.400,216.176 174.400 C 215.639 174.400,215.200 174.580,215.200 174.800 C 215.200 175.020,214.761 175.200,214.224 175.200 C 213.687 175.200,213.136 175.380,213.000 175.600 C 212.864 175.820,212.403 176.000,211.976 176.000 C 211.484 176.000,211.200 176.274,211.200 176.750 C 211.200 177.249,210.098 178.213,207.900 179.638 C 194.790 188.136,182.757 209.136,176.407 234.600 C 174.620 241.765,174.117 241.068,181.300 241.387 C 184.655 241.537,189.268 241.601,191.550 241.529 L 195.700 241.400 197.764 236.800 C 203.481 224.058,209.573 215.455,217.000 209.635 C 223.028 204.911,231.656 201.900,235.344 203.234 C 236.425 203.625,236.993 203.641,237.686 203.300 C 238.189 203.052,239.230 202.757,240.000 202.644 C 244.635 201.962,249.843 200.725,255.600 198.938 C 258.130 198.153,261.100 197.235,262.200 196.898 C 264.810 196.100,275.756 190.524,277.351 189.180 C 278.783 187.973,279.826 186.909,280.595 185.872 C 281.032 185.282,281.617 184.800,281.895 184.800 C 282.173 184.800,282.400 184.663,282.400 184.496 C 282.400 184.329,282.830 183.728,283.356 183.160 C 284.241 182.206,285.633 179.879,285.604 179.402 C 285.597 179.289,285.863 178.545,286.195 177.749 C 286.528 176.953,286.800 175.705,286.800 174.975 C 286.800 174.245,286.980 173.536,287.200 173.400 C 287.704 173.089,287.739 161.194,287.241 159.919 C 287.043 159.413,286.666 157.290,286.403 155.200 C 286.139 153.110,285.761 151.229,285.562 151.020 C 285.363 150.811,285.200 150.313,285.200 149.914 C 285.200 148.850,284.255 146.000,283.903 146.000 C 283.736 146.000,283.600 145.460,283.600 144.800 C 283.600 144.140,283.420 143.600,283.200 143.600 C 282.980 143.600,282.800 143.161,282.800 142.624 C 282.800 142.087,282.620 141.536,282.400 141.400 C 282.180 141.264,282.000 140.803,282.000 140.376 C 282.000 139.949,281.820 139.600,281.600 139.600 C 281.380 139.600,281.200 139.060,281.200 138.400 C 281.200 137.740,281.020 137.200,280.800 137.200 C 280.580 137.200,280.400 136.849,280.400 136.420 C 280.400 135.718,279.896 133.661,278.728 129.600 C 278.507 128.830,278.232 127.613,278.119 126.896 C 278.005 126.179,277.751 125.494,277.556 125.373 C 276.209 124.540,277.969 118.800,279.571 118.800 C 279.807 118.800,280.000 118.620,280.000 118.400 C 280.000 118.180,280.979 118.000,282.176 118.000 C 283.373 118.000,284.464 118.180,284.600 118.400 C 284.736 118.620,285.456 118.800,286.200 118.800 C 286.944 118.800,287.664 118.980,287.800 119.200 C 287.936 119.420,288.476 119.600,289.000 119.600 C 289.524 119.600,290.064 119.780,290.200 120.000 C 290.336 120.220,290.887 120.400,291.424 120.400 C 291.961 120.400,292.400 120.580,292.400 120.800 C 292.400 121.020,292.940 121.200,293.600 121.200 C 294.260 121.200,294.800 121.380,294.800 121.600 C 294.800 121.820,295.160 122.000,295.600 122.000 C 296.040 122.000,296.400 122.180,296.400 122.400 C 296.400 122.620,296.694 122.800,297.053 122.800 C 297.412 122.800,297.999 123.115,298.357 123.500 C 298.716 123.885,299.412 124.425,299.904 124.700 C 300.397 124.975,301.205 125.425,301.700 125.700 C 302.195 125.975,302.690 126.295,302.800 126.410 C 302.910 126.526,304.035 127.239,305.300 127.995 C 306.565 128.751,307.600 129.511,307.600 129.685 C 307.600 129.858,307.774 130.000,307.988 130.000 C 308.201 130.000,309.754 130.900,311.439 132.000 C 313.124 133.100,314.718 134.000,314.981 134.000 C 315.244 134.000,316.796 134.686,318.430 135.525 C 324.347 138.562,328.796 139.946,334.400 140.493 C 340.742 141.113,348.868 141.292,349.338 140.822 C 349.570 140.590,351.131 140.400,352.807 140.400 C 356.735 140.400,360.556 139.728,364.200 138.397 C 366.485 137.562,369.200 136.223,369.200 135.932 C 369.200 135.749,369.560 135.600,370.000 135.600 C 370.440 135.600,370.800 135.420,370.800 135.200 C 370.800 134.980,371.160 134.800,371.600 134.800 C 372.040 134.800,372.400 134.620,372.400 134.400 C 372.400 134.180,372.732 134.000,373.138 134.000 C 373.544 134.000,374.202 133.640,374.600 133.200 C 374.998 132.760,375.482 132.400,375.675 132.400 C 375.869 132.400,376.670 131.790,377.457 131.043 C 378.243 130.297,379.059 129.532,379.270 129.343 C 380.597 128.157,383.600 124.611,383.600 124.232 C 383.600 123.981,383.960 123.517,384.400 123.200 C 384.840 122.883,385.200 122.393,385.200 122.112 C 385.200 121.830,385.347 121.600,385.526 121.600 C 385.985 121.600,387.600 118.475,387.600 117.586 C 387.600 117.180,387.780 116.736,388.000 116.600 C 388.220 116.464,388.400 116.003,388.400 115.576 C 388.400 115.149,388.580 114.800,388.800 114.800 C 389.020 114.800,389.200 114.440,389.200 114.000 C 389.200 113.560,389.380 113.200,389.600 113.200 C 389.820 113.200,390.000 112.660,390.000 112.000 C 390.000 111.340,390.180 110.800,390.400 110.800 C 390.620 110.800,390.800 110.181,390.800 109.424 C 390.800 108.667,390.960 107.948,391.156 107.827 C 391.556 107.580,391.945 105.664,392.259 102.400 C 392.375 101.190,392.635 100.029,392.835 99.820 C 393.344 99.290,393.310 80.115,392.800 79.800 C 392.580 79.664,392.400 78.213,392.400 76.576 C 392.400 74.859,392.231 73.600,392.000 73.600 C 391.780 73.600,391.600 72.621,391.600 71.424 C 391.600 70.227,391.420 69.136,391.200 69.000 C 390.980 68.864,390.800 67.863,390.800 66.776 C 390.800 65.689,390.620 64.800,390.400 64.800 C 390.180 64.800,390.000 64.080,390.000 63.200 C 390.000 62.320,389.820 61.600,389.600 61.600 C 389.380 61.600,389.200 60.880,389.200 60.000 C 389.200 59.120,389.020 58.400,388.800 58.400 C 388.580 58.400,388.400 57.691,388.400 56.824 C 388.400 55.957,388.220 55.136,388.000 55.000 C 387.780 54.864,387.600 53.874,387.600 52.800 C 387.600 51.726,387.420 50.736,387.200 50.600 C 386.980 50.464,386.800 49.834,386.800 49.200 C 386.800 48.566,386.620 47.936,386.400 47.800 C 386.180 47.664,386.000 47.124,386.000 46.600 C 386.000 46.076,385.820 45.536,385.600 45.400 C 385.380 45.264,385.200 44.713,385.200 44.176 C 385.200 43.639,385.020 43.200,384.800 43.200 C 384.580 43.200,384.400 42.660,384.400 42.000 C 384.400 41.340,384.220 40.800,384.000 40.800 C 383.780 40.800,383.600 40.361,383.600 39.824 C 383.600 39.287,383.420 38.736,383.200 38.600 C 382.980 38.464,382.800 38.003,382.800 37.576 C 382.800 37.149,382.620 36.800,382.400 36.800 C 382.180 36.800,382.000 36.260,382.000 35.600 C 382.000 34.940,381.820 34.400,381.600 34.400 C 381.380 34.400,381.200 33.781,381.200 33.024 C 381.200 32.267,381.020 31.536,380.800 31.400 C 380.580 31.264,380.400 30.713,380.400 30.176 C 380.400 29.639,380.220 29.200,380.000 29.200 C 379.780 29.200,379.600 28.660,379.600 28.000 C 379.600 27.340,379.420 26.800,379.200 26.800 C 378.980 26.800,378.800 26.440,378.800 26.000 C 378.800 25.560,378.620 25.200,378.400 25.200 C 378.180 25.200,378.000 24.840,378.000 24.400 C 378.000 23.960,377.820 23.600,377.600 23.600 C 377.380 23.600,377.200 23.240,377.200 22.800 C 377.200 22.360,377.020 22.000,376.800 22.000 C 376.580 22.000,376.400 21.537,376.400 20.971 C 376.400 20.406,376.137 19.680,375.816 19.359 C 375.494 19.037,375.111 18.105,374.964 17.287 C 374.581 15.162,371.200 13.287,371.200 15.200 M100.093 213.600 C 100.093 214.370,100.175 214.685,100.276 214.300 C 100.376 213.915,100.376 213.285,100.276 212.900 C 100.175 212.515,100.093 212.830,100.093 213.600 M370.500 354.730 C 369.125 356.007,368.000 357.174,368.000 357.324 C 368.000 357.474,364.760 360.819,360.800 364.756 C 356.840 368.694,353.600 372.204,353.600 372.556 C 353.600 373.099,371.312 391.200,371.843 391.200 C 371.945 391.200,373.815 393.000,376.000 395.200 C 378.465 397.682,380.284 399.200,380.795 399.200 C 381.334 399.200,384.783 396.037,390.809 390.017 L 400.000 380.835 400.000 379.060 C 400.000 377.275,398.388 374.800,397.226 374.800 C 396.682 374.800,394.000 372.184,394.000 371.653 C 394.000 371.448,393.352 370.632,392.560 369.840 C 391.768 369.048,390.952 368.400,390.747 368.400 C 390.541 368.400,389.749 367.776,388.987 367.013 C 388.224 366.251,387.600 365.459,387.600 365.253 C 387.600 364.767,384.833 362.000,384.347 362.000 C 383.861 362.000,381.200 359.339,381.200 358.853 C 381.200 358.357,378.428 355.600,377.929 355.600 C 377.713 355.600,376.846 354.880,376.000 354.000 C 373.987 351.904,373.469 351.973,370.500 354.730 " stroke="none" fill="#f393b3" fill-rule="evenodd"></path><path id="path1" d="M69.400 17.600 C 69.264 17.820,68.094 18.000,66.800 18.000 C 65.506 18.000,64.336 18.180,64.200 18.400 C 64.063 18.621,62.263 18.800,60.176 18.800 C 57.925 18.800,56.400 18.962,56.400 19.200 C 56.400 19.422,55.333 19.600,54.000 19.600 C 52.667 19.600,51.600 19.778,51.600 20.000 C 51.600 20.220,50.610 20.400,49.400 20.400 C 48.190 20.400,47.200 20.568,47.200 20.773 C 47.200 20.979,46.705 21.204,46.100 21.273 C 45.077 21.391,45.010 21.512,45.140 23.000 C 45.469 26.780,45.281 38.799,44.858 41.000 C 42.915 51.104,42.909 51.200,44.148 51.200 C 44.727 51.200,45.200 51.380,45.200 51.600 C 45.200 51.820,45.639 52.000,46.176 52.000 C 46.713 52.000,47.264 52.180,47.400 52.400 C 47.536 52.620,47.999 52.800,48.429 52.800 C 49.184 52.800,49.574 52.944,51.495 53.938 C 51.987 54.192,52.752 54.400,53.195 54.400 C 53.638 54.400,54.000 54.580,54.000 54.800 C 54.000 55.020,54.439 55.200,54.976 55.200 C 55.513 55.200,56.064 55.380,56.200 55.600 C 56.336 55.820,56.876 56.000,57.400 56.000 C 57.924 56.000,58.464 56.180,58.600 56.400 C 58.736 56.620,59.276 56.800,59.800 56.800 C 60.324 56.800,60.864 56.980,61.000 57.200 C 61.136 57.420,62.047 57.600,63.024 57.600 C 64.001 57.600,64.800 57.780,64.800 58.000 C 64.800 58.220,65.340 58.400,66.000 58.400 C 66.660 58.400,67.200 58.580,67.200 58.800 C 67.200 59.414,69.982 59.275,70.629 58.629 C 70.943 58.314,71.200 57.785,71.200 57.452 C 71.200 57.119,71.380 56.736,71.600 56.600 C 71.820 56.464,72.000 55.733,72.000 54.976 C 72.000 54.219,72.160 53.600,72.356 53.600 C 72.706 53.600,73.020 52.263,73.459 48.900 C 73.581 47.965,73.842 47.200,74.040 47.200 C 74.238 47.200,74.400 46.156,74.400 44.880 C 74.400 43.604,74.586 42.374,74.813 42.147 C 75.270 41.690,75.093 22.398,74.602 19.100 L 74.319 17.200 71.983 17.200 C 70.698 17.200,69.536 17.380,69.400 17.600 M383.000 184.400 C 382.864 184.620,381.964 184.800,381.000 184.800 C 380.036 184.800,379.136 184.980,379.000 185.200 C 378.864 185.420,378.043 185.600,377.176 185.600 C 376.309 185.600,375.600 185.780,375.600 186.000 C 375.600 186.220,374.970 186.400,374.200 186.400 C 373.430 186.400,372.800 186.580,372.800 186.800 C 372.800 187.020,372.260 187.200,371.600 187.200 C 370.940 187.200,370.400 187.380,370.400 187.600 C 370.400 187.820,369.860 188.000,369.200 188.000 C 368.540 188.000,368.000 188.180,368.000 188.400 C 368.000 188.620,367.640 188.800,367.200 188.800 C 366.760 188.800,366.400 188.980,366.400 189.200 C 366.400 189.420,365.860 189.600,365.200 189.600 C 364.540 189.600,364.000 189.780,364.000 190.000 C 364.000 190.220,363.460 190.400,362.800 190.400 C 362.140 190.400,361.600 190.580,361.600 190.800 C 361.600 191.020,361.161 191.200,360.624 191.200 C 360.087 191.200,359.536 191.380,359.400 191.600 C 359.264 191.820,358.803 192.000,358.376 192.000 C 357.949 192.000,357.600 192.180,357.600 192.400 C 357.600 192.620,357.364 192.800,357.075 192.800 C 356.787 192.800,356.164 193.160,355.692 193.600 C 355.220 194.040,354.596 194.400,354.305 194.400 C 354.014 194.400,353.517 194.760,353.200 195.200 C 352.883 195.640,352.303 196.000,351.912 196.000 C 351.520 196.000,351.200 196.180,351.200 196.400 C 351.200 196.620,350.913 196.800,350.562 196.800 C 349.854 196.800,347.755 198.167,346.753 199.281 C 346.397 199.676,345.900 200.000,345.648 200.000 C 344.316 200.000,334.400 211.265,334.400 212.778 C 334.400 213.010,334.220 213.200,334.000 213.200 C 333.780 213.200,333.600 213.470,333.600 213.800 C 333.600 214.130,333.465 214.401,333.300 214.403 C 333.135 214.405,332.802 214.810,332.560 215.303 C 332.317 215.796,331.710 217.010,331.210 218.000 C 330.709 218.990,330.142 220.113,329.950 220.495 C 329.757 220.877,329.600 221.554,329.600 222.000 C 329.600 222.783,329.458 223.168,328.462 225.095 C 328.208 225.587,328.000 226.341,328.000 226.771 C 328.000 227.201,327.820 227.664,327.600 227.800 C 327.380 227.936,327.200 228.476,327.200 229.000 C 327.200 229.524,327.020 230.064,326.800 230.200 C 326.580 230.336,326.400 231.067,326.400 231.824 C 326.400 232.581,326.240 233.200,326.044 233.200 C 325.702 233.200,325.434 234.322,324.944 237.800 C 324.820 238.680,324.556 239.571,324.359 239.780 C 324.162 239.989,324.000 240.988,324.000 242.000 C 324.000 243.012,323.831 244.011,323.623 244.220 C 323.416 244.429,323.160 246.760,323.054 249.400 C 322.826 255.084,322.455 258.000,321.960 258.000 C 321.762 258.000,321.600 258.529,321.600 259.176 C 321.600 259.823,321.420 260.464,321.200 260.600 C 320.980 260.736,320.800 261.287,320.800 261.824 C 320.800 262.361,320.620 262.800,320.400 262.800 C 320.180 262.800,320.000 263.072,320.000 263.405 C 320.000 263.738,319.835 264.323,319.634 264.705 C 319.433 265.087,318.590 266.807,317.763 268.527 C 316.220 271.733,313.773 274.417,311.365 275.547 C 310.724 275.847,309.887 276.252,309.505 276.447 C 308.543 276.936,303.200 276.897,303.200 276.400 C 303.200 276.180,302.480 276.000,301.600 276.000 C 300.720 276.000,300.000 275.820,300.000 275.600 C 300.000 275.380,299.733 275.200,299.406 275.200 C 299.080 275.200,297.698 274.660,296.335 274.000 C 294.973 273.340,293.564 272.800,293.205 272.800 C 292.845 272.800,292.164 272.440,291.692 272.000 C 291.220 271.560,290.725 271.200,290.593 271.200 C 290.101 271.200,281.365 265.028,280.009 263.722 C 279.234 262.976,278.105 262.065,277.500 261.697 C 276.895 261.329,276.400 260.886,276.400 260.714 C 276.400 260.541,276.112 260.400,275.760 260.400 C 275.409 260.400,274.617 259.860,274.000 259.200 C 273.383 258.540,272.681 258.000,272.440 258.000 C 272.198 258.000,272.000 257.820,272.000 257.600 C 272.000 257.380,271.770 257.200,271.488 257.200 C 271.207 257.200,270.717 256.840,270.400 256.400 C 270.083 255.960,269.503 255.600,269.112 255.600 C 268.720 255.600,268.400 255.420,268.400 255.200 C 268.400 254.980,268.130 254.800,267.800 254.800 C 267.470 254.800,267.200 254.620,267.200 254.400 C 267.200 254.180,266.750 254.000,266.200 254.000 C 265.650 254.000,265.200 253.820,265.200 253.600 C 265.200 253.380,264.840 253.200,264.400 253.200 C 263.960 253.200,263.600 253.020,263.600 252.800 C 263.600 252.580,263.240 252.400,262.800 252.400 C 262.360 252.400,262.000 252.220,262.000 252.000 C 262.000 251.780,261.764 251.600,261.475 251.600 C 261.187 251.600,260.564 251.240,260.092 250.800 C 259.620 250.360,258.776 250.000,258.217 250.000 C 257.658 250.000,257.200 249.820,257.200 249.600 C 257.200 249.380,256.876 249.200,256.480 249.200 C 256.084 249.200,255.542 248.982,255.276 248.716 C 254.898 248.338,254.542 248.380,253.642 248.911 C 252.782 249.420,252.204 249.500,251.346 249.231 C 241.748 246.221,229.636 249.005,215.520 257.467 C 206.900 262.634,198.103 264.719,188.189 263.945 C 184.652 263.669,176.659 262.055,175.605 261.403 C 175.047 261.058,174.120 262.225,173.223 264.400 C 172.724 265.610,170.985 269.821,169.358 273.757 C 165.782 282.408,165.805 282.163,168.500 282.963 C 173.740 284.517,181.522 286.260,187.600 287.240 C 191.580 287.882,206.545 287.868,210.400 287.219 C 218.366 285.877,222.367 284.824,228.600 282.430 C 237.043 279.186,238.692 278.754,242.800 278.712 C 247.319 278.665,250.003 279.441,251.841 281.327 C 253.277 282.799,254.711 284.000,255.033 284.000 C 255.155 284.000,256.041 284.540,257.000 285.200 C 257.959 285.860,258.851 286.400,258.983 286.400 C 259.114 286.400,260.002 287.165,260.956 288.100 C 262.886 289.991,264.309 291.200,264.604 291.200 C 264.711 291.200,265.563 291.920,266.497 292.800 C 267.431 293.680,268.349 294.400,268.537 294.400 C 268.725 294.400,269.359 294.895,269.945 295.500 C 271.636 297.244,274.296 299.200,274.977 299.200 C 275.319 299.200,275.600 299.350,275.600 299.532 C 275.600 299.715,276.095 300.120,276.700 300.432 C 277.305 300.745,278.204 301.396,278.698 301.879 C 279.980 303.136,284.301 305.600,285.221 305.600 C 285.650 305.600,286.000 305.780,286.000 306.000 C 286.000 306.220,286.360 306.400,286.800 306.400 C 287.240 306.400,287.600 306.580,287.600 306.800 C 287.600 307.020,287.960 307.200,288.400 307.200 C 288.840 307.200,289.200 307.380,289.200 307.600 C 289.200 307.820,289.560 308.000,290.000 308.000 C 290.440 308.000,290.800 308.180,290.800 308.400 C 290.800 308.620,291.149 308.800,291.576 308.800 C 292.003 308.800,292.443 308.946,292.554 309.125 C 292.664 309.303,294.070 309.863,295.677 310.368 C 297.285 310.874,299.013 311.448,299.519 311.644 C 300.024 311.840,301.769 312.000,303.395 312.000 C 305.022 312.000,306.464 312.180,306.600 312.400 C 306.747 312.638,309.263 312.800,312.800 312.800 C 316.337 312.800,318.853 312.638,319.000 312.400 C 319.136 312.180,320.447 312.000,321.912 312.000 C 324.491 312.000,330.039 310.631,330.333 309.921 C 330.407 309.745,330.786 309.600,331.177 309.600 C 332.065 309.600,336.800 307.186,336.800 306.733 C 336.800 306.550,337.160 306.400,337.600 306.400 C 338.040 306.400,338.400 306.220,338.400 306.000 C 338.400 305.780,338.687 305.600,339.038 305.600 C 339.986 305.600,341.919 304.149,344.461 301.530 C 345.705 300.248,346.851 299.200,347.008 299.200 C 347.470 299.200,349.587 296.648,349.594 296.083 C 349.597 295.799,349.960 295.180,350.400 294.708 C 350.840 294.236,351.200 293.613,351.200 293.325 C 351.200 293.036,351.359 292.800,351.553 292.800 C 351.883 292.800,353.135 290.429,354.510 287.200 C 355.589 284.667,355.948 283.435,356.464 280.500 C 356.744 278.905,357.115 277.600,357.287 277.600 C 357.459 277.600,357.600 276.891,357.600 276.024 C 357.600 275.157,357.780 274.336,358.000 274.200 C 358.220 274.064,358.400 273.189,358.400 272.256 C 358.400 271.323,358.564 270.389,358.765 270.180 C 358.965 269.971,359.226 268.810,359.345 267.600 C 359.463 266.390,359.747 264.230,359.976 262.800 C 360.205 261.370,360.565 259.030,360.776 257.600 C 360.987 256.170,361.273 254.370,361.412 253.600 C 361.551 252.830,362.018 250.220,362.451 247.800 C 363.191 243.666,363.496 242.705,365.177 239.200 C 366.298 236.862,366.950 235.870,368.100 234.750 C 368.705 234.161,369.200 233.391,369.200 233.040 C 369.200 232.688,369.488 232.400,369.840 232.400 C 370.191 232.400,370.983 231.860,371.600 231.200 C 372.217 230.540,373.009 230.000,373.360 230.000 C 373.712 230.000,374.000 229.820,374.000 229.600 C 374.000 229.380,374.540 229.200,375.200 229.200 C 375.860 229.200,376.400 229.053,376.400 228.872 C 376.400 228.692,377.311 228.296,378.425 227.993 C 379.539 227.690,380.540 227.297,380.649 227.121 C 380.758 226.944,381.467 226.800,382.224 226.800 C 382.981 226.800,383.600 226.620,383.600 226.400 C 383.600 226.149,386.133 226.000,390.400 226.000 L 397.200 226.000 397.200 223.424 C 397.200 222.007,397.020 220.736,396.800 220.600 C 396.580 220.464,396.400 218.833,396.400 216.976 C 396.400 214.992,396.235 213.600,396.000 213.600 C 395.763 213.600,395.600 212.133,395.600 210.000 C 395.600 207.867,395.437 206.400,395.200 206.400 C 394.967 206.400,394.800 205.067,394.800 203.200 C 394.800 201.333,394.633 200.000,394.400 200.000 C 394.150 200.000,394.000 197.598,394.000 193.594 C 394.000 189.608,393.812 186.585,393.503 185.594 L 393.005 184.000 388.126 184.000 C 385.305 184.000,383.143 184.169,383.000 184.400 " stroke="none" fill="#04abf3" fill-rule="evenodd"></path><path id="path2" d="M177.155 0.179 C 177.057 0.277,176.205 0.403,175.262 0.458 C 174.320 0.514,173.460 0.704,173.351 0.880 C 173.242 1.056,172.623 1.200,171.976 1.200 C 171.329 1.200,170.800 1.380,170.800 1.600 C 170.800 1.820,170.260 2.000,169.600 2.000 C 168.940 2.000,168.400 2.180,168.400 2.400 C 168.400 2.620,167.986 2.800,167.480 2.800 C 166.426 2.800,164.408 3.653,164.403 4.100 C 164.401 4.265,163.860 4.400,163.200 4.400 C 162.540 4.400,162.000 4.580,162.000 4.800 C 162.000 5.020,161.475 5.200,160.833 5.200 C 160.192 5.200,159.607 5.378,159.533 5.597 C 159.460 5.815,158.918 6.033,158.329 6.081 C 157.740 6.130,157.345 6.312,157.452 6.485 C 157.560 6.658,157.264 6.800,156.795 6.800 C 156.326 6.800,155.671 7.072,155.339 7.404 C 155.007 7.736,154.570 7.905,154.368 7.780 C 154.165 7.655,154.000 7.743,154.000 7.976 C 154.000 8.209,153.775 8.400,153.500 8.400 C 153.225 8.401,152.482 8.847,151.848 9.392 C 151.214 9.937,150.511 10.269,150.286 10.130 C 150.051 9.984,149.998 10.073,150.162 10.338 C 150.331 10.612,150.193 10.800,149.824 10.800 C 149.481 10.800,149.200 10.980,149.200 11.200 C 149.200 11.420,148.917 11.600,148.571 11.600 C 148.226 11.600,147.671 11.872,147.339 12.204 C 147.007 12.536,146.542 12.688,146.306 12.542 C 146.051 12.385,145.993 12.464,146.162 12.738 C 146.331 13.012,146.193 13.200,145.824 13.200 C 145.481 13.200,145.200 13.380,145.200 13.600 C 145.200 13.820,144.974 14.000,144.698 14.000 C 144.422 14.000,143.462 14.675,142.565 15.500 C 141.668 16.325,140.589 17.208,140.167 17.463 C 139.745 17.717,139.449 18.136,139.510 18.393 C 139.570 18.649,139.457 18.759,139.257 18.635 C 138.892 18.410,133.244 23.755,133.085 24.476 C 133.038 24.688,131.965 25.949,130.700 27.277 C 129.435 28.605,128.400 29.874,128.400 30.099 C 128.400 30.323,128.012 30.842,127.539 31.253 C 127.065 31.664,126.823 32.000,127.001 32.000 C 127.179 32.000,127.063 32.315,126.745 32.700 C 126.426 33.085,125.918 33.895,125.615 34.500 C 125.312 35.105,124.905 35.600,124.709 35.600 C 124.513 35.600,124.455 35.765,124.580 35.968 C 124.705 36.170,124.572 36.575,124.285 36.868 C 123.392 37.777,121.146 41.200,121.443 41.200 C 121.597 41.200,121.398 41.560,121.000 42.000 C 120.602 42.440,120.415 42.800,120.584 42.800 C 120.753 42.800,120.601 43.244,120.246 43.786 C 119.891 44.328,119.600 45.138,119.600 45.586 C 119.600 46.034,119.420 46.400,119.200 46.400 C 118.980 46.400,118.800 46.760,118.800 47.200 C 118.800 47.640,118.620 48.000,118.400 48.000 C 118.180 48.000,118.000 48.236,118.000 48.525 C 118.000 48.814,117.640 49.795,117.200 50.706 C 116.760 51.616,116.400 52.629,116.400 52.957 C 116.400 53.285,116.241 53.651,116.046 53.771 C 115.851 53.892,115.599 54.487,115.484 55.095 C 115.370 55.703,115.148 56.740,114.991 57.400 C 114.835 58.060,114.698 58.825,114.687 59.100 C 114.676 59.375,114.535 59.600,114.373 59.600 C 114.101 59.600,113.934 61.283,113.981 63.559 C 113.992 64.086,113.826 64.727,113.613 64.984 C 113.188 65.496,113.312 80.454,113.761 82.800 C 113.908 83.570,114.027 84.785,114.026 85.500 C 114.025 86.215,114.160 86.800,114.325 86.800 C 114.490 86.800,114.666 87.285,114.715 87.878 C 114.764 88.470,114.938 89.055,115.102 89.178 C 115.364 89.373,115.484 89.792,115.737 91.400 C 115.772 91.620,115.944 91.906,116.120 92.036 C 116.296 92.166,116.469 92.661,116.505 93.136 C 116.541 93.611,116.723 94.000,116.909 94.000 C 117.095 94.000,117.145 94.165,117.020 94.368 C 116.895 94.570,117.019 94.975,117.296 95.268 C 118.175 96.196,119.600 99.241,119.600 100.189 C 119.600 100.691,119.868 101.324,120.196 101.596 C 120.523 101.868,120.693 102.250,120.572 102.445 C 120.451 102.640,120.543 102.800,120.776 102.800 C 121.009 102.800,121.200 103.083,121.200 103.429 C 121.200 103.774,121.472 104.329,121.804 104.661 C 122.136 104.993,122.305 105.430,122.180 105.632 C 122.055 105.835,122.143 106.000,122.376 106.000 C 122.609 106.000,122.800 106.243,122.800 106.541 C 122.800 106.838,123.340 107.646,124.000 108.337 C 124.660 109.028,125.200 109.864,125.200 110.196 C 125.200 110.528,125.380 110.800,125.600 110.800 C 125.820 110.800,126.000 111.087,126.000 111.438 C 126.000 112.153,127.487 114.432,128.267 114.913 C 128.546 115.085,129.071 115.850,129.433 116.613 C 129.795 117.376,130.251 118.000,130.446 118.000 C 130.641 118.000,130.800 121.499,130.800 125.776 C 130.800 130.529,130.956 133.649,131.200 133.800 C 131.420 133.936,131.600 134.926,131.600 136.000 C 131.600 137.074,131.780 138.064,132.000 138.200 C 132.220 138.336,132.400 139.797,132.400 141.447 C 132.400 143.097,132.541 144.360,132.714 144.253 C 132.887 144.146,133.045 144.361,133.064 144.729 C 133.173 146.771,133.406 148.000,133.685 148.000 C 133.858 148.000,133.979 148.135,133.953 148.300 C 133.790 149.330,134.056 151.213,134.339 151.037 C 134.820 150.740,136.288 152.200,136.600 153.286 C 136.745 153.789,137.368 155.820,137.985 157.800 C 139.966 164.161,139.921 164.366,136.526 164.428 C 135.687 164.444,134.640 164.617,134.200 164.814 C 133.451 165.149,137.084 164.953,138.261 164.595 C 139.285 164.284,139.942 165.546,140.552 169.000 C 143.702 186.821,139.113 202.057,125.530 218.876 C 121.724 223.589,121.689 222.863,125.900 226.647 C 127.825 228.378,130.300 230.626,131.400 231.644 C 134.998 234.973,136.296 236.000,136.910 236.000 C 139.056 236.000,154.810 216.965,159.090 209.200 C 159.514 208.430,160.509 206.630,161.300 205.200 C 162.092 203.770,163.219 201.340,163.806 199.800 C 164.393 198.260,165.021 196.640,165.200 196.200 C 165.716 194.940,166.067 193.896,166.411 192.600 C 166.587 191.940,166.999 190.410,167.326 189.200 C 168.438 185.096,168.859 181.017,168.845 174.478 L 168.832 167.956 169.716 168.234 C 178.219 170.910,190.600 177.942,198.370 184.509 L 199.682 185.617 198.661 186.909 C 198.099 187.619,196.595 189.492,195.320 191.071 C 191.964 195.225,187.463 202.886,184.786 209.000 C 184.304 210.100,183.461 211.990,182.912 213.200 C 181.681 215.913,177.996 226.778,178.029 227.600 C 178.042 227.930,178.918 225.680,179.975 222.600 C 185.139 207.557,191.229 196.104,198.093 188.530 C 200.917 185.413,200.988 185.888,197.269 182.948 C 189.823 177.063,179.517 171.203,171.708 168.415 C 168.090 167.123,168.012 167.068,167.791 165.648 C 167.666 164.852,167.021 161.902,166.357 159.093 C 165.605 155.909,165.263 153.650,165.448 153.093 C 165.803 152.025,165.657 149.963,165.186 149.388 C 165.000 149.161,164.763 148.531,164.660 147.988 C 164.558 147.444,164.248 146.460,163.972 145.800 C 163.696 145.140,163.502 144.458,163.541 144.284 C 163.579 144.110,163.453 143.660,163.261 143.284 C 162.306 141.418,162.313 140.282,163.279 140.572 C 163.786 140.724,164.830 140.946,165.600 141.065 C 166.370 141.185,167.180 141.423,167.400 141.594 C 167.620 141.766,169.292 141.934,171.116 141.969 C 172.940 142.003,174.875 142.234,175.416 142.480 C 176.143 142.811,176.657 142.811,177.384 142.480 C 177.925 142.234,179.860 142.003,181.684 141.969 C 183.508 141.934,185.183 141.760,185.406 141.582 C 185.629 141.404,186.529 141.153,187.406 141.025 C 192.962 140.215,196.314 139.292,199.279 137.759 C 199.891 137.443,200.451 137.232,200.524 137.292 C 200.597 137.351,200.974 137.083,201.361 136.696 C 201.748 136.309,202.203 136.078,202.372 136.182 C 202.541 136.287,203.059 136.019,203.523 135.586 C 203.987 135.154,204.644 134.800,204.983 134.800 C 205.322 134.800,205.600 134.620,205.600 134.400 C 205.600 134.180,205.947 134.000,206.371 134.000 C 206.796 134.000,207.426 133.717,207.771 133.371 C 208.117 133.026,208.400 132.856,208.400 132.994 C 208.400 133.494,212.834 129.855,215.834 126.893 C 217.555 125.194,220.000 122.256,220.000 121.887 C 220.000 121.711,220.352 121.189,220.783 120.726 C 221.783 119.653,223.200 116.650,223.200 115.604 C 223.200 115.162,223.380 114.800,223.600 114.800 C 223.820 114.800,224.000 114.451,224.000 114.024 C 224.000 113.597,224.141 113.160,224.313 113.054 C 224.485 112.948,224.670 112.269,224.725 111.546 C 224.780 110.823,224.978 110.134,225.164 110.016 C 225.946 109.517,226.717 97.043,225.993 96.596 C 225.777 96.462,225.600 95.499,225.600 94.456 C 225.600 93.413,225.421 92.381,225.202 92.162 C 224.984 91.944,224.764 91.278,224.715 90.682 C 224.666 90.087,224.524 89.600,224.400 89.600 C 224.276 89.600,224.134 89.105,224.084 88.500 C 224.034 87.895,223.815 87.340,223.597 87.267 C 223.378 87.193,223.200 86.709,223.200 86.190 C 223.200 85.672,223.017 85.134,222.793 84.996 C 222.570 84.858,222.491 84.577,222.617 84.372 C 222.744 84.168,222.657 84.000,222.424 84.000 C 222.191 84.000,222.036 83.865,222.079 83.700 C 222.228 83.137,221.547 81.600,221.149 81.600 C 220.931 81.600,220.855 81.435,220.980 81.232 C 221.105 81.030,220.936 80.593,220.604 80.261 C 220.272 79.929,220.000 79.473,220.000 79.248 C 220.000 79.024,219.685 78.656,219.300 78.432 C 218.915 78.208,218.762 78.019,218.959 78.012 C 219.157 78.005,218.752 77.458,218.059 76.797 C 217.367 76.135,216.800 75.436,216.800 75.243 C 216.800 74.722,211.875 69.821,211.199 69.669 C 210.879 69.598,210.147 69.013,209.573 68.369 C 208.998 67.726,208.231 67.200,207.868 67.200 C 207.504 67.200,206.982 66.840,206.707 66.400 C 206.432 65.960,205.891 65.600,205.504 65.600 C 205.117 65.600,204.800 65.420,204.800 65.200 C 204.800 64.980,204.339 64.800,203.776 64.800 C 203.196 64.800,202.860 64.627,203.000 64.400 C 203.136 64.180,202.887 64.000,202.447 64.000 C 202.007 64.000,201.536 63.820,201.400 63.600 C 201.264 63.380,200.364 63.200,199.400 63.200 C 198.436 63.200,197.536 63.020,197.400 62.800 C 197.264 62.580,196.544 62.400,195.800 62.400 C 195.056 62.400,194.336 62.220,194.200 62.000 C 194.051 61.759,191.270 61.600,187.200 61.600 C 183.130 61.600,180.349 61.759,180.200 62.000 C 180.064 62.220,179.258 62.400,178.410 62.400 C 177.561 62.400,176.807 62.565,176.733 62.767 C 176.660 62.969,175.700 63.183,174.600 63.242 C 172.722 63.344,171.287 63.815,170.778 64.498 C 170.655 64.662,170.083 64.835,169.506 64.883 C 168.930 64.931,168.545 65.112,168.652 65.285 C 168.760 65.458,168.464 65.600,167.995 65.600 C 167.526 65.600,166.871 65.872,166.539 66.204 C 166.207 66.536,165.742 66.688,165.506 66.542 C 165.251 66.385,165.193 66.464,165.362 66.738 C 165.531 67.012,165.393 67.200,165.024 67.200 C 164.681 67.200,164.400 67.380,164.400 67.600 C 164.400 67.820,164.106 68.000,163.747 68.000 C 163.388 68.000,162.782 68.360,162.400 68.800 C 162.018 69.240,161.245 69.638,160.682 69.685 C 160.119 69.732,159.745 69.912,159.852 70.085 C 159.960 70.258,159.768 70.400,159.427 70.400 C 159.086 70.400,158.582 70.760,158.307 71.200 C 158.032 71.640,157.616 72.000,157.382 72.000 C 157.148 72.000,156.271 72.628,155.433 73.396 C 154.595 74.163,153.745 74.690,153.545 74.566 C 153.344 74.442,153.230 74.551,153.290 74.807 C 153.351 75.064,153.043 75.483,152.606 75.737 C 152.169 75.992,151.536 76.470,151.200 76.800 C 150.864 77.130,150.231 77.608,149.794 77.863 C 149.357 78.117,149.045 78.522,149.100 78.763 C 149.155 79.003,148.975 79.155,148.700 79.100 C 148.425 79.045,148.245 79.225,148.300 79.500 C 148.355 79.775,148.175 79.955,147.900 79.900 C 147.625 79.845,147.445 80.025,147.500 80.300 C 147.555 80.575,147.403 80.755,147.163 80.700 C 146.922 80.645,146.517 80.952,146.263 81.383 C 145.032 83.466,143.600 83.383,143.600 81.229 C 143.600 80.773,143.420 80.400,143.200 80.400 C 142.980 80.400,142.800 79.770,142.800 79.000 C 142.800 78.230,142.620 77.600,142.400 77.600 C 142.158 77.600,142.000 75.875,142.000 73.224 C 142.000 70.737,142.173 68.740,142.400 68.600 C 142.620 68.464,142.800 67.744,142.800 67.000 C 142.800 66.256,142.980 65.536,143.200 65.400 C 143.420 65.264,143.600 64.613,143.600 63.953 C 143.600 63.255,143.767 62.856,144.000 63.000 C 144.220 63.136,144.400 62.933,144.400 62.550 C 144.400 62.166,144.738 61.121,145.152 60.226 C 146.022 58.343,146.516 57.118,146.565 56.720 C 146.584 56.566,146.825 56.215,147.100 55.940 C 147.375 55.665,147.600 55.116,147.600 54.720 C 147.600 54.324,147.780 54.000,148.000 54.000 C 148.220 54.000,148.400 53.762,148.400 53.471 C 148.400 53.180,149.389 51.965,150.598 50.771 C 151.806 49.577,152.796 48.371,152.798 48.090 C 152.799 47.810,153.230 47.417,153.755 47.217 C 154.280 47.018,155.183 46.381,155.762 45.802 C 156.341 45.223,157.171 44.722,157.607 44.689 C 158.043 44.657,158.400 44.488,158.400 44.315 C 158.400 44.142,158.760 44.000,159.200 44.000 C 159.640 44.000,160.000 43.820,160.000 43.600 C 160.000 43.380,160.360 43.200,160.800 43.200 C 161.240 43.200,161.601 43.065,161.603 42.900 C 161.607 42.499,163.581 41.600,164.456 41.600 C 164.839 41.600,165.264 41.420,165.400 41.200 C 165.536 40.980,165.997 40.800,166.424 40.800 C 166.851 40.800,167.200 40.620,167.200 40.400 C 167.200 40.180,167.740 40.000,168.400 40.000 C 169.060 40.000,169.600 39.820,169.600 39.600 C 169.600 39.380,170.125 39.200,170.767 39.200 C 171.408 39.200,171.993 39.027,172.067 38.816 C 172.140 38.605,173.955 38.403,176.100 38.368 C 178.245 38.333,180.000 38.145,180.000 37.952 C 180.000 37.758,181.339 37.600,182.976 37.600 C 184.613 37.600,186.064 37.420,186.200 37.200 C 186.351 36.955,189.511 36.800,194.345 36.800 L 202.244 36.800 202.336 35.232 C 202.387 34.370,202.242 33.550,202.014 33.409 C 201.786 33.268,201.600 32.803,201.600 32.376 C 201.600 31.949,201.420 31.600,201.200 31.600 C 200.980 31.600,200.800 31.240,200.800 30.800 C 200.800 30.360,200.620 30.000,200.400 30.000 C 200.180 30.000,200.000 29.561,200.000 29.024 C 200.000 28.487,199.820 27.936,199.600 27.800 C 199.380 27.664,199.200 27.147,199.200 26.652 C 199.200 26.156,198.840 25.364,198.400 24.892 C 197.926 24.384,197.600 23.481,197.600 22.678 C 197.600 21.933,197.291 20.710,196.913 19.961 C 196.535 19.213,196.164 18.150,196.089 17.600 C 196.013 17.050,195.782 16.540,195.575 16.467 C 195.369 16.393,195.200 15.909,195.200 15.390 C 195.200 14.872,195.020 14.336,194.800 14.200 C 194.580 14.064,194.400 13.603,194.400 13.176 C 194.400 12.749,194.220 12.400,194.000 12.400 C 193.780 12.400,193.600 12.055,193.600 11.633 C 193.600 11.212,193.422 10.807,193.203 10.733 C 192.985 10.660,192.766 10.105,192.716 9.500 C 192.666 8.895,192.485 8.400,192.313 8.400 C 192.141 8.400,192.000 8.076,192.000 7.680 C 192.000 7.284,191.809 6.769,191.575 6.535 C 191.341 6.301,191.133 5.539,191.114 4.841 C 191.094 4.143,190.925 3.477,190.739 3.362 C 190.552 3.247,190.394 2.758,190.387 2.276 C 190.357 0.185,189.783 0.000,183.323 0.000 C 180.028 0.000,177.253 0.080,177.155 0.179 M189.285 90.500 C 189.766 90.775,190.517 91.315,190.955 91.700 C 191.393 92.085,191.905 92.400,192.094 92.400 C 192.534 92.400,194.541 94.396,194.118 94.413 C 193.943 94.421,194.225 94.781,194.744 95.213 C 195.264 95.646,195.534 96.003,195.344 96.006 C 195.155 96.009,195.247 96.168,195.548 96.359 C 195.875 96.566,196.086 97.374,196.073 98.361 C 196.060 99.272,196.174 99.940,196.325 99.847 C 196.719 99.604,196.841 102.059,196.460 102.572 C 196.285 102.807,196.121 103.399,196.097 103.888 C 196.050 104.811,193.532 107.622,192.634 107.754 C 192.351 107.795,191.655 108.134,191.086 108.507 C 189.070 109.828,187.168 110.800,186.600 110.800 C 186.283 110.800,185.383 111.160,184.600 111.600 C 183.817 112.040,182.631 112.400,181.964 112.400 C 181.258 112.400,180.856 112.567,181.000 112.800 C 181.159 113.058,179.604 113.200,176.624 113.200 C 173.808 113.200,172.000 113.044,172.000 112.800 C 172.000 112.580,171.460 112.400,170.800 112.400 C 170.140 112.400,169.600 112.220,169.600 112.000 C 169.600 111.780,169.240 111.600,168.800 111.600 C 168.360 111.600,168.000 111.420,168.000 111.200 C 168.000 110.980,167.865 110.821,167.700 110.847 C 166.909 110.972,165.896 110.771,166.132 110.535 C 166.277 110.389,165.677 109.948,164.798 109.555 C 163.919 109.161,163.200 108.730,163.200 108.596 C 163.200 108.462,163.339 108.439,163.508 108.543 C 163.678 108.648,164.263 107.629,164.808 106.278 C 166.047 103.212,173.319 95.600,175.011 95.600 C 175.555 95.600,176.000 95.450,176.000 95.268 C 176.000 95.085,176.444 94.698,176.986 94.407 C 177.529 94.117,177.861 93.699,177.725 93.478 C 177.588 93.257,177.670 93.196,177.906 93.342 C 178.142 93.488,178.607 93.336,178.939 93.004 C 179.271 92.672,179.826 92.400,180.171 92.400 C 180.517 92.400,180.800 92.220,180.800 92.000 C 180.800 91.780,181.149 91.600,181.576 91.600 C 182.003 91.600,182.464 91.420,182.600 91.200 C 182.736 90.980,183.467 90.800,184.224 90.800 C 184.981 90.800,185.600 90.620,185.600 90.400 C 185.600 89.832,188.242 89.904,189.285 90.500 M130.200 165.619 C 129.642 165.871,129.885 165.907,131.000 165.738 C 131.880 165.604,132.675 165.428,132.767 165.347 C 133.110 165.044,130.968 165.271,130.200 165.619 M127.200 166.400 C 126.405 166.914,127.404 166.914,128.600 166.400 L 129.400 166.056 128.600 166.034 C 128.160 166.022,127.530 166.187,127.200 166.400 M122.522 167.963 C 114.527 171.118,110.373 174.758,106.503 182.000 C 104.908 184.983,102.980 189.914,103.288 190.221 C 103.376 190.309,103.776 189.441,104.177 188.291 C 107.775 177.970,113.002 172.266,122.200 168.622 C 126.612 166.874,126.653 166.855,126.000 166.841 C 125.670 166.834,124.105 167.339,122.522 167.963 M102.664 191.500 C 102.169 193.325,102.008 194.568,102.339 194.000 C 102.734 193.325,103.268 190.800,103.017 190.800 C 102.927 190.800,102.769 191.115,102.664 191.500 M101.649 195.400 C 101.616 195.840,101.496 196.650,101.383 197.200 L 101.177 198.200 101.606 197.219 C 101.842 196.679,101.961 195.869,101.872 195.419 C 101.713 194.621,101.707 194.621,101.649 195.400 M100.635 201.435 C 100.483 203.116,100.441 204.574,100.542 204.676 C 100.643 204.777,100.855 203.488,101.012 201.812 C 101.169 200.136,101.211 198.677,101.105 198.571 C 100.999 198.466,100.788 199.754,100.635 201.435 M296.800 201.600 C 296.030 202.460,295.130 203.177,294.800 203.195 C 294.003 203.237,292.400 204.597,292.400 205.231 C 292.400 205.507,292.303 205.636,292.184 205.518 C 292.066 205.399,291.159 206.089,290.169 207.051 C 289.179 208.013,288.231 208.800,288.063 208.800 C 287.894 208.800,286.596 209.873,285.178 211.185 C 283.760 212.497,282.015 214.112,281.300 214.774 C 280.585 215.436,280.000 215.873,280.000 215.746 C 280.000 215.619,279.505 216.033,278.900 216.665 C 278.295 217.297,277.305 218.130,276.700 218.516 C 275.351 219.378,275.077 222.225,276.299 222.693 C 277.282 223.071,278.800 224.658,278.800 225.310 C 278.800 225.990,281.510 229.200,282.084 229.200 C 282.684 229.200,284.026 230.835,283.768 231.252 C 283.650 231.443,283.844 231.600,284.200 231.600 C 284.556 231.600,284.736 231.780,284.600 232.000 C 284.464 232.220,284.543 232.400,284.776 232.400 C 285.009 232.400,285.200 232.700,285.200 233.067 C 285.200 233.433,285.319 233.614,285.464 233.469 C 285.610 233.324,285.928 233.609,286.171 234.102 C 286.415 234.596,287.016 235.178,287.507 235.395 C 288.316 235.753,288.435 235.918,288.384 236.616 C 288.376 236.735,289.096 237.531,289.984 238.385 C 290.873 239.239,291.600 240.142,291.600 240.392 C 291.600 240.642,291.780 240.736,292.000 240.600 C 292.220 240.464,292.400 240.644,292.400 241.000 C 292.400 241.356,292.542 241.560,292.715 241.452 C 292.888 241.345,293.264 241.785,293.549 242.429 C 293.834 243.073,294.322 243.600,294.634 243.600 C 294.945 243.600,295.200 243.780,295.200 244.000 C 295.200 244.796,296.236 244.346,297.986 242.789 C 298.968 241.915,300.013 241.200,300.309 241.200 C 300.605 241.200,300.736 241.020,300.600 240.800 C 300.464 240.580,300.553 240.400,300.799 240.400 C 301.044 240.400,302.304 239.320,303.600 238.000 C 304.896 236.680,306.124 235.600,306.329 235.600 C 306.534 235.600,308.175 234.160,309.975 232.400 C 311.776 230.640,313.519 229.200,313.848 229.200 C 314.178 229.200,314.336 229.020,314.200 228.800 C 314.064 228.580,314.189 228.400,314.478 228.400 C 315.327 228.400,319.159 224.119,319.093 223.244 C 319.061 222.810,318.891 222.544,318.717 222.651 C 318.543 222.759,318.400 222.556,318.400 222.200 C 318.400 221.844,318.220 221.664,318.000 221.800 C 317.780 221.936,317.600 221.678,317.600 221.227 C 317.600 220.776,317.240 220.182,316.800 219.907 C 316.360 219.632,316.000 219.217,316.000 218.985 C 316.000 218.408,313.083 215.600,312.483 215.600 C 312.217 215.600,312.000 215.240,312.000 214.800 C 312.000 214.360,311.820 214.000,311.600 214.000 C 311.380 214.000,311.200 213.719,311.200 213.376 C 311.200 213.033,311.020 212.864,310.800 213.000 C 310.580 213.136,310.396 213.012,310.392 212.724 C 310.387 212.436,309.307 211.229,307.992 210.043 C 306.676 208.856,305.600 207.641,305.600 207.343 C 305.600 207.044,305.420 206.800,305.200 206.800 C 304.980 206.800,304.800 206.617,304.800 206.394 C 304.800 205.914,298.954 199.992,298.506 200.018 C 298.338 200.029,297.570 200.740,296.800 201.600 M100.131 209.800 C 100.133 211.340,100.205 211.921,100.292 211.091 C 100.379 210.261,100.377 209.001,100.289 208.291 C 100.200 207.581,100.129 208.260,100.131 209.800 M217.400 209.243 C 209.410 215.693,203.533 223.941,197.765 236.800 L 195.701 241.400 191.751 241.607 L 187.800 241.814 191.563 242.007 C 195.702 242.219,196.013 242.100,196.803 240.000 C 201.470 227.584,215.639 208.348,220.072 208.407 C 220.523 208.413,225.188 215.064,226.609 217.727 C 226.865 218.207,227.607 219.500,228.257 220.600 C 228.907 221.700,229.861 223.500,230.376 224.600 C 230.892 225.700,232.009 228.081,232.857 229.891 C 233.706 231.702,234.400 233.446,234.400 233.768 C 234.400 234.090,234.559 234.451,234.752 234.570 C 234.946 234.690,235.203 235.196,235.324 235.694 C 235.445 236.192,235.722 237.230,235.938 238.000 C 236.155 238.770,236.802 241.195,237.376 243.390 C 238.657 248.289,239.409 249.340,238.341 244.738 C 235.725 233.472,230.336 221.784,222.491 210.358 C 220.290 207.152,220.054 207.101,217.400 209.243 M100.493 216.800 C 100.493 217.570,100.575 217.885,100.676 217.500 C 100.776 217.115,100.776 216.485,100.676 216.100 C 100.575 215.715,100.493 216.030,100.493 216.800 M100.909 220.000 C 100.909 220.990,100.987 221.395,101.082 220.900 C 101.178 220.405,101.178 219.595,101.082 219.100 C 100.987 218.605,100.909 219.010,100.909 220.000 M102.273 227.400 C 102.536 229.249,105.346 238.061,106.003 239.100 C 106.281 239.539,106.377 239.577,106.259 239.200 C 106.156 238.870,105.350 236.350,104.470 233.600 C 103.589 230.850,102.683 227.970,102.457 227.200 L 102.045 225.800 102.273 227.400 M177.449 229.015 C 177.312 229.373,177.215 229.966,177.234 230.333 C 177.253 230.700,177.427 230.469,177.621 229.820 C 177.998 228.558,177.865 227.933,177.449 229.015 M176.623 232.070 C 176.485 232.581,176.213 233.630,176.018 234.400 C 175.823 235.170,175.469 236.541,175.232 237.446 C 174.994 238.352,174.800 239.657,174.800 240.346 L 174.800 241.600 178.100 241.520 L 181.400 241.439 178.300 241.303 C 174.625 241.141,174.726 241.425,176.195 235.417 C 176.730 233.227,177.102 231.368,177.021 231.287 C 176.939 231.206,176.760 231.558,176.623 232.070 M108.000 243.753 C 108.000 244.182,109.190 246.400,109.421 246.400 C 109.531 246.400,109.323 245.815,108.959 245.100 C 108.217 243.640,108.000 243.336,108.000 243.753 M109.600 246.879 C 109.600 247.243,112.062 251.690,112.901 252.839 C 113.286 253.368,112.939 252.540,112.130 251.000 C 110.573 248.038,109.600 246.453,109.600 246.879 M114.403 255.476 C 114.907 256.397,116.579 258.827,118.118 260.876 C 129.734 276.334,143.246 288.443,157.247 295.940 C 159.363 297.073,161.253 297.997,161.447 297.994 C 161.641 297.991,159.640 296.802,157.000 295.352 C 141.935 287.077,126.926 273.233,116.722 258.200 C 113.888 254.025,113.105 253.105,114.403 255.476 M236.424 281.500 C 232.644 292.068,225.402 299.429,215.674 302.591 C 214.505 302.971,213.636 303.370,213.744 303.477 C 214.315 304.049,220.964 301.125,224.421 298.782 C 229.451 295.374,235.598 286.727,237.021 281.058 C 237.413 279.498,237.042 279.772,236.424 281.500 M163.800 299.099 C 164.259 299.578,171.205 302.212,173.000 302.587 C 173.660 302.726,172.130 302.048,169.600 301.081 C 167.070 300.115,164.640 299.179,164.200 299.003 C 163.649 298.782,163.524 298.812,163.800 299.099 M175.000 303.200 C 175.440 303.389,176.070 303.544,176.400 303.544 C 176.778 303.544,176.704 303.417,176.200 303.200 C 175.760 303.011,175.130 302.856,174.800 302.856 C 174.422 302.856,174.496 302.983,175.000 303.200 M177.800 303.981 C 178.568 304.329,180.710 304.556,180.367 304.253 C 180.275 304.172,179.480 303.996,178.600 303.862 C 177.485 303.693,177.242 303.729,177.800 303.981 M211.000 304.055 C 210.340 304.267,208.990 304.591,208.000 304.773 C 206.587 305.034,206.458 305.115,207.400 305.148 C 208.060 305.170,209.680 304.848,211.000 304.431 C 212.320 304.014,213.130 303.672,212.800 303.671 C 212.470 303.670,211.660 303.843,211.000 304.055 M181.400 304.800 C 181.840 304.989,182.740 305.135,183.400 305.125 L 184.600 305.105 183.400 304.800 C 182.740 304.632,181.840 304.486,181.400 304.475 L 180.600 304.456 181.400 304.800 M371.705 305.087 C 372.314 305.179,373.214 305.177,373.705 305.082 C 374.197 304.987,373.700 304.911,372.600 304.914 C 371.500 304.917,371.097 304.995,371.705 305.087 M186.400 305.636 C 187.170 305.854,191.310 306.032,195.600 306.032 C 199.890 306.032,204.030 305.854,204.800 305.636 C 205.955 305.310,205.780 305.284,203.800 305.489 C 202.480 305.626,198.790 305.738,195.600 305.738 C 192.410 305.738,188.720 305.626,187.400 305.489 C 185.420 305.284,185.245 305.310,186.400 305.636 M299.189 325.492 C 298.645 325.873,297.678 326.683,297.041 327.292 C 296.403 327.902,295.678 328.400,295.429 328.400 C 295.180 328.400,294.717 328.760,294.400 329.200 C 294.083 329.640,293.620 330.000,293.371 330.000 C 293.122 330.000,292.384 330.495,291.732 331.100 C 291.079 331.705,290.334 332.244,290.077 332.298 C 289.820 332.352,289.068 332.964,288.405 333.658 C 287.742 334.351,287.200 334.765,287.200 334.578 C 287.200 334.391,286.514 334.908,285.675 335.727 C 284.836 336.546,284.026 337.093,283.875 336.941 C 283.724 336.790,283.600 336.907,283.600 337.200 C 283.600 337.493,283.481 337.614,283.336 337.469 C 283.191 337.324,282.820 337.564,282.513 338.003 C 282.206 338.441,281.730 338.800,281.455 338.800 C 280.461 338.800,278.000 341.474,278.000 342.554 C 278.000 343.129,278.180 343.600,278.400 343.600 C 278.620 343.600,278.800 343.834,278.800 344.120 C 278.800 344.856,279.741 346.793,280.100 346.797 C 280.265 346.799,280.400 347.171,280.400 347.624 C 280.400 348.077,280.580 348.336,280.800 348.200 C 281.020 348.064,281.200 348.289,281.200 348.701 C 281.200 349.112,281.560 349.836,282.000 350.308 C 282.440 350.780,282.800 351.523,282.800 351.960 C 282.800 352.396,282.980 352.864,283.200 353.000 C 283.420 353.136,283.600 353.597,283.600 354.024 C 283.600 354.451,283.780 354.800,284.000 354.800 C 284.220 354.800,284.400 355.145,284.400 355.567 C 284.400 355.988,284.576 356.393,284.790 356.467 C 285.005 356.540,285.205 358.040,285.235 359.800 C 285.265 361.560,285.477 363.231,285.705 363.514 C 285.996 363.873,285.971 364.307,285.622 364.958 C 284.705 366.672,286.380 368.045,288.900 367.647 C 289.065 367.621,289.200 367.760,289.200 367.955 C 289.200 368.150,290.325 368.324,291.700 368.341 C 293.075 368.359,294.650 368.495,295.200 368.644 C 295.750 368.794,298.447 368.987,301.194 369.073 C 303.941 369.159,306.362 369.402,306.574 369.614 C 306.786 369.826,308.148 370.000,309.600 370.000 C 311.052 370.000,312.444 370.204,312.693 370.453 C 313.338 371.098,314.400 370.575,314.400 369.613 C 314.400 369.166,314.558 368.800,314.751 368.800 C 315.245 368.800,315.335 360.731,314.844 360.427 C 314.626 360.292,314.410 358.796,314.365 357.103 C 314.321 355.410,314.130 354.120,313.942 354.236 C 313.754 354.352,313.600 353.727,313.600 352.847 C 313.600 351.967,313.420 351.136,313.200 351.000 C 312.980 350.864,312.800 350.223,312.800 349.576 C 312.800 348.929,312.620 348.400,312.400 348.400 C 312.180 348.400,312.000 347.620,312.000 346.667 C 312.000 345.713,311.881 344.814,311.735 344.668 C 311.229 344.162,310.080 340.453,310.339 340.163 C 310.483 340.003,310.375 340.001,310.100 340.159 C 309.773 340.348,309.600 340.178,309.600 339.669 C 309.600 338.668,308.601 336.732,308.261 337.073 C 308.117 337.216,308.000 336.933,308.000 336.443 C 308.000 335.951,307.821 335.663,307.600 335.800 C 307.373 335.940,307.200 335.604,307.200 335.024 C 307.200 334.461,307.020 334.000,306.800 334.000 C 306.580 334.000,306.400 333.640,306.400 333.200 C 306.400 332.760,306.232 332.400,306.026 332.400 C 305.820 332.400,305.427 331.780,305.153 331.021 C 304.879 330.263,304.507 329.734,304.327 329.845 C 304.147 329.956,304.000 329.677,304.000 329.224 C 304.000 328.771,303.864 328.400,303.698 328.400 C 303.531 328.400,303.160 327.869,302.873 327.219 C 302.585 326.569,302.001 325.927,301.575 325.792 C 301.149 325.657,300.800 325.378,300.800 325.173 C 300.800 324.618,300.295 324.718,299.189 325.492 " stroke="none" fill="#d04229" fill-rule="evenodd"></path><path id="path3" d="M137.400 164.700 C 122.127 166.365,111.674 172.480,106.636 182.695 C 90.976 214.447,105.207 255.271,142.600 285.866 C 172.741 310.527,218.835 312.654,232.178 290.000 C 234.640 285.819,234.997 285.129,236.004 282.600 C 236.529 281.280,237.238 279.981,237.579 279.713 C 238.802 278.753,235.842 279.648,228.600 282.430 C 222.366 284.825,218.365 285.877,210.400 287.219 C 206.545 287.868,191.580 287.882,187.600 287.240 C 181.522 286.260,173.740 284.517,168.500 282.963 C 165.805 282.163,165.782 282.408,169.358 273.757 C 170.985 269.821,172.724 265.610,173.223 264.400 C 174.120 262.225,175.047 261.058,175.605 261.403 C 176.659 262.055,184.652 263.669,188.189 263.945 C 198.103 264.719,206.900 262.634,215.520 257.467 C 224.627 252.008,231.102 249.458,238.400 248.456 C 239.830 248.259,240.501 248.077,239.890 248.049 C 238.631 247.993,238.422 247.598,237.408 243.368 C 237.044 241.845,236.599 240.150,236.419 239.600 C 236.240 239.050,235.861 237.790,235.577 236.800 C 235.293 235.810,234.912 234.829,234.730 234.620 C 234.549 234.411,234.400 234.002,234.400 233.711 C 234.400 233.421,233.706 231.702,232.857 229.891 C 232.009 228.081,230.892 225.700,230.376 224.600 C 229.861 223.500,228.907 221.700,228.257 220.600 C 227.607 219.500,226.865 218.207,226.609 217.727 C 225.188 215.064,220.523 208.413,220.072 208.407 C 215.639 208.348,201.470 227.584,196.803 240.000 C 195.999 242.137,195.741 242.226,191.161 241.942 C 188.872 241.801,184.255 241.666,180.900 241.642 L 174.800 241.600 174.800 240.346 C 174.800 239.657,174.994 238.352,175.232 237.446 C 175.469 236.541,175.850 235.080,176.078 234.200 C 176.306 233.320,176.631 232.150,176.800 231.600 C 176.969 231.050,177.332 229.790,177.606 228.800 C 178.664 224.987,181.958 215.298,182.911 213.200 C 183.461 211.990,184.304 210.100,184.786 209.000 C 187.463 202.886,191.964 195.225,195.320 191.071 C 196.595 189.492,198.099 187.619,198.661 186.909 L 199.682 185.617 198.370 184.509 C 190.600 177.942,178.219 170.910,169.716 168.234 L 168.832 167.956 168.845 174.478 C 168.859 181.017,168.438 185.096,167.326 189.200 C 166.999 190.410,166.587 191.940,166.411 192.600 C 166.067 193.896,165.716 194.940,165.200 196.200 C 165.021 196.640,164.393 198.260,163.806 199.800 C 163.219 201.340,162.092 203.770,161.300 205.200 C 160.509 206.630,159.514 208.430,159.090 209.200 C 154.810 216.965,139.056 236.000,136.910 236.000 C 136.296 236.000,134.998 234.973,131.400 231.644 C 130.300 230.626,127.825 228.378,125.900 226.647 C 121.689 222.863,121.724 223.589,125.530 218.876 C 139.155 202.005,143.706 186.826,140.522 168.877 C 139.813 164.881,139.507 164.471,137.400 164.700 M242.500 278.676 C 242.885 278.776,243.515 278.776,243.900 278.676 C 244.285 278.575,243.970 278.493,243.200 278.493 C 242.430 278.493,242.115 278.575,242.500 278.676 " stroke="none" fill="#733c27" fill-rule="evenodd"></path><path id="path4" d="M288.900 5.798 C 288.625 6.111,288.400 6.723,288.400 7.160 C 288.400 7.596,288.220 8.064,288.000 8.200 C 287.780 8.336,287.600 8.797,287.600 9.224 C 287.600 9.651,287.420 10.000,287.200 10.000 C 286.980 10.000,286.800 10.540,286.800 11.200 C 286.800 11.860,286.665 12.401,286.500 12.403 C 286.053 12.408,285.200 14.426,285.200 15.480 C 285.200 15.986,285.020 16.400,284.800 16.400 C 284.580 16.400,284.400 16.688,284.400 17.040 C 284.400 17.391,283.860 18.183,283.200 18.800 C 282.540 19.417,282.000 20.081,282.000 20.276 C 282.000 20.472,281.280 21.428,280.400 22.400 C 279.520 23.372,278.800 24.379,278.800 24.637 C 278.800 24.895,278.440 25.201,278.000 25.316 C 275.894 25.867,276.907 28.168,281.100 32.359 C 283.245 34.503,285.192 36.592,285.427 37.002 C 285.661 37.411,286.189 37.939,286.600 38.173 C 287.710 38.808,290.000 41.111,290.000 41.593 C 290.000 41.824,291.368 43.381,293.040 45.053 C 296.401 48.414,297.263 48.542,298.772 45.903 C 299.118 45.299,299.649 44.804,299.953 44.803 C 300.528 44.800,302.399 42.856,302.400 42.260 C 302.400 42.074,302.940 41.417,303.600 40.800 C 304.260 40.183,304.800 39.431,304.800 39.128 C 304.800 38.825,305.160 38.317,305.600 38.000 C 306.040 37.683,306.400 37.143,306.400 36.800 C 306.400 36.457,306.760 35.917,307.200 35.600 C 307.640 35.283,308.000 34.769,308.000 34.459 C 308.000 34.148,308.315 33.601,308.700 33.243 C 309.365 32.624,309.904 31.792,310.800 30.000 C 311.020 29.560,311.380 28.842,311.600 28.405 C 311.820 27.968,312.000 27.282,312.000 26.881 C 312.000 26.479,312.360 25.764,312.800 25.292 C 313.240 24.820,313.600 24.077,313.600 23.640 C 313.600 23.204,313.780 22.736,314.000 22.600 C 314.220 22.464,314.400 22.003,314.400 21.576 C 314.400 21.149,314.580 20.800,314.800 20.800 C 315.020 20.800,315.200 20.350,315.200 19.800 C 315.200 19.250,315.380 18.800,315.600 18.800 C 315.820 18.800,316.000 18.361,316.000 17.824 C 316.000 17.287,316.180 16.736,316.400 16.600 C 316.620 16.464,316.800 15.733,316.800 14.976 C 316.800 14.219,316.980 13.600,317.200 13.600 C 317.420 13.600,317.599 12.655,317.597 11.500 C 317.593 9.063,316.770 8.400,313.744 8.400 C 312.811 8.400,311.936 8.220,311.800 8.000 C 311.664 7.780,310.573 7.600,309.376 7.600 C 308.179 7.600,307.200 7.420,307.200 7.200 C 307.200 6.980,306.311 6.800,305.224 6.800 C 304.137 6.800,303.136 6.620,303.000 6.400 C 302.862 6.177,301.004 6.000,298.800 6.000 C 296.596 6.000,294.738 5.823,294.600 5.600 C 294.210 4.969,289.485 5.134,288.900 5.798 M254.716 31.817 C 254.597 31.936,252.362 32.477,249.750 33.019 C 247.137 33.560,244.948 34.158,244.885 34.347 C 244.821 34.537,244.245 34.630,243.603 34.556 C 242.962 34.481,242.204 34.640,241.919 34.910 C 241.633 35.179,240.860 35.434,240.200 35.476 C 238.407 35.588,236.256 36.056,235.773 36.438 C 235.539 36.624,234.729 36.813,233.973 36.859 C 233.218 36.904,232.420 37.072,232.200 37.232 C 231.980 37.392,231.350 37.586,230.800 37.662 C 229.767 37.805,229.176 40.091,230.035 40.622 C 230.236 40.746,230.400 41.456,230.400 42.200 C 230.400 42.944,230.580 43.664,230.800 43.800 C 231.020 43.936,231.200 44.656,231.200 45.400 C 231.200 46.144,231.380 46.864,231.600 47.000 C 231.820 47.136,232.000 47.957,232.000 48.824 C 232.000 49.691,232.180 50.400,232.400 50.400 C 232.620 50.400,232.800 51.120,232.800 52.000 C 232.800 52.880,232.980 53.600,233.200 53.600 C 233.420 53.600,233.600 54.218,233.600 54.974 C 233.600 55.730,233.784 56.831,234.008 57.422 C 234.233 58.012,234.436 59.378,234.461 60.457 C 234.485 61.535,234.661 62.514,234.852 62.632 C 235.044 62.751,235.200 63.409,235.200 64.095 C 235.200 64.782,235.362 65.896,235.560 66.572 C 235.758 67.247,236.211 69.045,236.567 70.567 C 236.922 72.089,237.383 73.538,237.590 73.788 C 238.038 74.328,241.200 74.586,241.200 74.083 C 241.200 73.731,241.675 73.635,243.693 73.577 C 244.294 73.560,244.890 73.378,245.017 73.173 C 245.143 72.968,245.942 72.800,246.790 72.800 C 247.639 72.800,248.393 72.628,248.467 72.418 C 248.540 72.207,249.275 71.990,250.100 71.936 C 250.925 71.881,251.600 71.693,251.600 71.518 C 251.600 71.343,252.305 71.200,253.167 71.200 C 254.028 71.200,254.793 71.034,254.867 70.831 C 254.940 70.629,256.260 70.367,257.800 70.251 C 262.838 69.871,265.536 69.060,265.784 67.852 C 266.013 66.739,265.848 64.915,265.486 64.553 C 265.329 64.395,265.200 63.667,265.200 62.933 C 265.200 62.200,265.020 61.600,264.800 61.600 C 264.580 61.600,264.400 60.891,264.400 60.024 C 264.400 59.157,264.220 58.336,264.000 58.200 C 263.780 58.064,263.600 57.243,263.600 56.376 C 263.600 55.509,263.420 54.800,263.200 54.800 C 262.980 54.800,262.800 54.091,262.800 53.224 C 262.800 52.357,262.620 51.536,262.400 51.400 C 262.180 51.264,262.000 50.569,262.000 49.856 C 262.000 49.143,261.818 48.378,261.594 48.154 C 261.371 47.931,261.170 46.770,261.147 45.574 C 261.123 44.379,260.919 43.048,260.694 42.617 C 260.468 42.186,260.297 41.334,260.315 40.724 C 260.332 40.113,260.178 39.510,259.973 39.383 C 259.768 39.257,259.600 38.443,259.600 37.576 C 259.600 36.709,259.420 36.000,259.200 36.000 C 258.980 36.000,258.800 35.226,258.800 34.280 C 258.800 32.032,256.118 30.415,254.716 31.817 M14.600 65.446 C 13.500 66.678,12.526 67.889,12.436 68.136 C 12.345 68.384,11.580 69.250,10.736 70.062 C 9.891 70.873,9.200 71.725,9.200 71.955 C 9.200 72.184,8.840 72.565,8.400 72.800 C 7.960 73.035,7.600 73.492,7.600 73.814 C 7.600 74.136,7.409 74.400,7.176 74.400 C 6.943 74.400,6.864 74.580,7.000 74.800 C 7.136 75.020,7.045 75.200,6.798 75.200 C 6.348 75.200,4.100 77.633,4.313 77.890 C 4.375 77.965,3.492 78.936,2.351 80.048 C -0.082 82.418,-0.758 85.045,0.662 86.619 C 1.693 87.762,3.816 89.200,4.473 89.200 C 4.776 89.200,5.283 89.560,5.600 90.000 C 5.917 90.440,6.417 90.800,6.712 90.800 C 7.006 90.800,7.153 90.953,7.037 91.140 C 6.922 91.327,7.316 91.732,7.914 92.040 C 8.511 92.348,9.349 92.915,9.775 93.300 C 10.202 93.685,10.787 94.000,11.075 94.000 C 11.364 94.000,11.601 94.135,11.603 94.300 C 11.607 94.659,13.544 95.600,14.280 95.600 C 14.566 95.600,14.800 95.780,14.800 96.000 C 14.800 96.220,15.160 96.400,15.600 96.400 C 16.040 96.400,16.400 96.580,16.400 96.800 C 16.400 97.020,16.678 97.200,17.017 97.200 C 17.356 97.200,18.020 97.560,18.492 98.000 C 18.964 98.440,19.587 98.800,19.875 98.800 C 20.164 98.800,20.400 98.980,20.400 99.200 C 20.400 99.420,20.760 99.600,21.200 99.600 C 21.640 99.600,22.000 99.780,22.000 100.000 C 22.000 100.220,22.458 100.400,23.017 100.400 C 23.576 100.400,24.420 100.760,24.892 101.200 C 25.476 101.744,26.304 102.000,27.475 102.000 C 28.424 102.000,29.200 102.180,29.200 102.400 C 29.200 102.620,29.740 102.800,30.400 102.800 C 31.060 102.800,31.600 102.980,31.600 103.200 C 31.600 103.420,32.140 103.600,32.800 103.600 C 33.460 103.600,34.000 103.780,34.000 104.000 C 34.000 104.226,35.133 104.400,36.600 104.400 L 39.200 104.400 39.200 102.000 C 39.200 100.667,39.378 99.600,39.600 99.600 C 39.825 99.600,40.000 98.475,40.000 97.024 C 40.000 95.607,40.180 94.336,40.400 94.200 C 40.620 94.064,40.800 92.894,40.800 91.600 C 40.800 90.306,40.980 89.136,41.200 89.000 C 41.420 88.864,41.600 87.593,41.600 86.176 C 41.600 84.725,41.775 83.600,42.000 83.600 C 42.222 83.600,42.400 82.532,42.400 81.195 C 42.400 79.872,42.614 78.446,42.876 78.027 C 43.589 76.885,42.661 76.000,40.751 76.000 C 39.898 76.000,39.200 75.820,39.200 75.600 C 39.200 75.380,38.840 75.200,38.400 75.200 C 37.960 75.200,37.600 75.020,37.600 74.800 C 37.600 74.580,37.240 74.400,36.800 74.400 C 36.360 74.400,36.000 74.220,36.000 74.000 C 36.000 73.780,35.539 73.600,34.976 73.600 C 34.396 73.600,34.060 73.427,34.200 73.200 C 34.341 72.972,33.996 72.800,33.400 72.800 C 32.804 72.800,32.459 72.628,32.600 72.400 C 32.736 72.180,32.612 71.996,32.324 71.991 C 32.036 71.986,31.350 71.630,30.800 71.200 C 30.250 70.770,29.474 70.414,29.076 70.409 C 28.678 70.404,28.464 70.220,28.600 70.000 C 28.737 69.778,28.437 69.599,27.924 69.598 C 27.416 69.597,26.460 69.096,25.800 68.485 C 25.140 67.874,23.970 66.939,23.200 66.406 C 22.430 65.874,21.710 65.331,21.600 65.200 C 19.402 62.578,17.087 62.660,14.600 65.446 M71.270 108.300 C 70.820 108.685,70.097 109.650,69.663 110.445 C 68.254 113.031,67.822 113.652,66.300 115.287 C 65.475 116.174,64.800 117.147,64.800 117.449 C 64.800 117.752,64.648 118.000,64.463 118.000 C 64.277 118.000,63.726 118.777,63.238 119.726 C 62.750 120.676,61.822 122.071,61.176 122.826 C 60.530 123.582,60.001 124.410,60.001 124.667 C 60.000 124.923,59.865 125.193,59.700 125.267 C 59.330 125.431,57.156 128.300,56.571 129.396 C 55.632 131.155,54.968 132.195,54.300 132.955 C 53.516 133.847,53.401 134.400,54.000 134.400 C 54.220 134.400,54.400 134.670,54.400 135.000 C 54.400 135.333,54.756 135.600,55.200 135.600 C 55.640 135.600,56.000 135.780,56.000 136.000 C 56.000 136.220,56.172 136.400,56.382 136.400 C 56.593 136.400,57.632 136.911,58.692 137.537 C 59.752 138.162,61.854 139.167,63.362 139.770 C 66.596 141.064,69.116 142.340,69.426 142.841 C 69.547 143.039,69.997 143.200,70.424 143.200 C 70.851 143.200,71.200 143.380,71.200 143.600 C 71.200 143.820,71.560 144.000,72.000 144.000 C 72.440 144.000,72.800 144.180,72.800 144.400 C 72.800 144.620,73.160 144.800,73.600 144.800 C 74.040 144.800,74.400 144.980,74.400 145.200 C 74.400 145.420,74.760 145.600,75.200 145.600 C 75.640 145.600,76.000 145.780,76.000 146.000 C 76.000 146.220,76.540 146.400,77.200 146.400 C 77.860 146.400,78.400 146.580,78.400 146.800 C 78.400 147.020,78.760 147.200,79.200 147.200 C 79.640 147.200,80.000 147.380,80.000 147.600 C 80.000 147.820,80.360 148.000,80.800 148.000 C 81.240 148.000,81.601 148.135,81.603 148.300 C 81.605 148.465,82.010 148.799,82.503 149.041 C 82.996 149.284,84.439 150.042,85.710 150.725 C 89.486 152.756,90.584 152.797,91.409 150.938 C 91.784 150.092,92.622 148.242,93.271 146.827 C 93.921 145.412,94.972 142.690,95.607 140.778 C 96.633 137.691,98.178 133.912,99.234 131.905 C 99.435 131.523,99.600 130.938,99.600 130.605 C 99.600 130.272,99.780 130.000,100.000 130.000 C 100.220 130.000,100.400 129.550,100.400 129.000 C 100.400 128.450,100.580 128.000,100.800 128.000 C 101.020 128.000,101.200 127.865,101.200 127.700 C 101.199 127.127,99.304 125.200,98.742 125.200 C 98.431 125.200,97.917 124.840,97.600 124.400 C 97.283 123.960,96.838 123.599,96.612 123.598 C 96.385 123.597,95.652 123.102,94.983 122.498 C 93.491 121.153,92.208 120.400,91.405 120.400 C 91.072 120.400,90.800 120.220,90.800 120.000 C 90.800 119.780,90.596 119.600,90.347 119.600 C 90.098 119.600,89.603 119.271,89.247 118.870 C 88.424 117.941,82.574 114.000,82.018 114.000 C 81.788 114.000,81.600 113.820,81.600 113.600 C 81.600 113.380,81.330 113.200,81.000 113.200 C 80.670 113.200,80.400 113.020,80.400 112.800 C 80.400 112.580,80.130 112.400,79.800 112.400 C 79.470 112.400,79.200 112.250,79.200 112.068 C 79.200 111.885,78.705 111.480,78.100 111.168 C 77.495 110.856,76.910 110.499,76.800 110.374 C 75.066 108.405,72.342 107.384,71.270 108.300 M329.200 143.200 C 328.870 143.413,328.105 143.591,327.500 143.594 C 326.895 143.597,326.400 143.741,326.400 143.913 C 326.400 144.085,325.545 144.474,324.500 144.778 C 323.455 145.082,322.506 145.471,322.391 145.642 C 322.276 145.812,321.232 145.996,320.070 146.049 C 318.908 146.102,317.867 146.292,317.755 146.472 C 317.644 146.653,317.124 146.800,316.600 146.800 C 316.076 146.800,315.536 146.980,315.400 147.200 C 315.264 147.420,314.794 147.600,314.357 147.600 C 313.919 147.600,312.984 147.907,312.280 148.281 C 311.576 148.656,310.777 148.919,310.505 148.865 C 310.232 148.811,309.631 148.969,309.169 149.216 C 308.708 149.463,307.854 149.752,307.273 149.857 C 306.007 150.087,305.517 150.717,305.763 151.800 C 306.175 153.618,306.736 155.471,307.214 156.600 C 307.494 157.260,307.790 158.156,307.873 158.591 C 307.955 159.027,308.198 159.558,308.411 159.771 C 308.625 159.985,308.800 160.563,308.800 161.056 C 308.800 161.549,308.980 162.064,309.200 162.200 C 309.420 162.336,309.600 162.876,309.600 163.400 C 309.600 163.924,309.780 164.464,310.000 164.600 C 310.220 164.736,310.400 165.382,310.400 166.036 C 310.400 166.691,310.641 167.805,310.936 168.513 C 311.230 169.221,311.401 170.009,311.314 170.263 C 311.228 170.518,311.347 170.844,311.579 170.987 C 311.810 171.130,312.000 171.687,312.000 172.224 C 312.000 172.761,312.180 173.200,312.400 173.200 C 312.620 173.200,312.800 173.718,312.800 174.351 C 312.800 174.984,313.059 175.717,313.376 175.980 C 313.693 176.243,313.865 176.686,313.758 176.965 C 313.336 178.064,314.706 178.559,316.513 177.961 C 317.441 177.654,318.320 177.402,318.467 177.401 C 318.613 177.401,318.868 177.265,319.033 177.100 C 319.198 176.935,319.743 176.800,320.243 176.800 C 320.743 176.800,321.264 176.620,321.400 176.400 C 321.536 176.180,322.076 176.000,322.600 176.000 C 323.124 176.000,323.664 175.820,323.800 175.600 C 323.936 175.380,324.399 175.200,324.829 175.200 C 325.259 175.200,325.968 175.020,326.405 174.800 C 326.842 174.580,327.558 174.220,327.995 174.000 C 328.432 173.780,329.152 173.600,329.595 173.600 C 330.038 173.600,330.400 173.420,330.400 173.200 C 330.400 172.980,330.940 172.800,331.600 172.800 C 332.260 172.800,332.800 172.620,332.800 172.400 C 332.800 172.180,333.610 172.000,334.600 172.000 C 335.590 172.000,336.400 171.859,336.400 171.687 C 336.400 171.515,336.866 171.336,337.436 171.289 C 339.687 171.102,339.849 168.969,337.975 164.200 C 337.635 163.336,337.269 161.764,336.928 159.700 C 336.809 158.985,336.552 158.400,336.356 158.400 C 336.160 158.400,336.000 157.770,336.000 157.000 C 336.000 156.230,335.820 155.600,335.600 155.600 C 335.380 155.600,335.200 155.071,335.200 154.424 C 335.200 153.777,335.020 153.136,334.800 153.000 C 334.580 152.864,334.400 152.313,334.400 151.776 C 334.400 151.239,334.220 150.800,334.000 150.800 C 333.780 150.800,333.600 150.249,333.600 149.576 C 333.600 148.863,333.433 148.456,333.200 148.600 C 332.967 148.744,332.800 148.345,332.800 147.647 C 332.800 146.987,332.620 146.336,332.400 146.200 C 332.180 146.064,332.000 145.603,332.000 145.176 C 332.000 144.749,331.820 144.400,331.600 144.400 C 331.380 144.400,331.200 144.040,331.200 143.600 C 331.200 142.734,330.224 142.538,329.200 143.200 M132.600 151.124 C 131.500 151.192,130.429 151.417,130.220 151.624 C 130.011 151.831,128.895 152.000,127.740 152.000 C 124.029 152.000,117.565 154.029,111.044 157.240 C 109.748 157.878,108.479 158.400,108.224 158.400 C 107.532 158.400,105.607 159.355,105.603 159.700 C 105.601 159.865,105.240 160.000,104.800 160.000 C 104.360 160.000,104.000 160.168,104.000 160.373 C 104.000 160.578,103.631 160.863,103.180 161.006 C 102.729 161.149,101.784 161.837,101.080 162.533 C 100.375 163.230,99.102 164.160,98.249 164.600 C 97.397 165.040,96.227 166.003,95.650 166.739 C 95.072 167.476,93.295 169.419,91.700 171.057 C 90.105 172.696,88.800 174.388,88.800 174.818 C 88.800 175.248,88.620 175.600,88.400 175.600 C 88.180 175.600,88.000 175.798,88.000 176.040 C 88.000 176.281,87.505 176.956,86.900 177.540 C 86.295 178.123,85.545 179.095,85.232 179.700 C 84.920 180.305,84.515 180.800,84.332 180.800 C 84.150 180.800,84.000 181.160,84.000 181.600 C 84.000 182.040,83.847 182.400,83.660 182.400 C 83.473 182.400,82.709 183.615,81.962 185.100 C 81.215 186.585,80.468 187.860,80.302 187.933 C 80.136 188.007,80.000 188.329,80.000 188.650 C 80.000 188.971,79.640 189.620,79.200 190.092 C 78.760 190.564,78.400 191.187,78.400 191.475 C 78.400 191.764,78.220 192.000,78.000 192.000 C 77.780 192.000,77.600 192.360,77.600 192.800 C 77.600 193.240,77.420 193.600,77.200 193.600 C 76.980 193.600,76.800 193.960,76.800 194.400 C 76.800 194.840,76.620 195.200,76.400 195.200 C 76.180 195.200,76.000 195.549,76.000 195.976 C 76.000 196.403,75.820 196.864,75.600 197.000 C 75.380 197.136,75.200 197.687,75.200 198.224 C 75.200 198.761,75.020 199.200,74.800 199.200 C 74.580 199.200,74.400 199.740,74.400 200.400 C 74.400 201.060,74.220 201.600,74.000 201.600 C 73.780 201.600,73.600 201.960,73.600 202.400 C 73.600 202.840,73.453 203.200,73.274 203.200 C 72.808 203.200,71.200 206.331,71.200 207.238 C 71.200 207.657,71.020 208.000,70.800 208.000 C 70.580 208.000,70.400 208.360,70.400 208.800 C 70.400 209.240,70.220 209.600,70.000 209.600 C 69.780 209.600,69.600 210.039,69.600 210.576 C 69.600 211.113,69.420 211.664,69.200 211.800 C 68.980 211.936,68.800 212.371,68.800 212.767 C 68.800 213.368,67.761 215.751,65.954 219.295 C 65.759 219.677,65.600 220.262,65.600 220.595 C 65.600 220.928,65.420 221.200,65.200 221.200 C 64.980 221.200,64.800 221.465,64.800 221.788 C 64.800 222.111,64.440 223.017,64.000 223.800 C 63.560 224.583,63.200 225.663,63.200 226.200 C 63.200 226.737,62.840 227.817,62.400 228.600 C 61.960 229.383,61.600 230.379,61.600 230.812 C 61.600 231.245,61.420 231.600,61.200 231.600 C 60.980 231.600,60.800 231.872,60.800 232.205 C 60.800 232.538,60.640 233.123,60.444 233.505 C 60.248 233.887,59.685 235.100,59.193 236.200 C 58.369 238.043,58.052 238.797,57.174 241.000 C 56.999 241.440,56.629 242.745,56.352 243.900 C 56.075 245.055,55.703 246.000,55.524 246.000 C 55.346 246.000,55.200 246.272,55.200 246.605 C 55.200 246.938,55.041 247.523,54.847 247.905 C 54.652 248.287,54.271 249.140,54.000 249.800 C 53.729 250.460,53.348 251.313,53.153 251.695 C 52.959 252.077,52.800 252.752,52.800 253.195 C 52.800 253.638,52.664 254.000,52.498 254.000 C 52.155 254.000,51.505 255.443,50.786 257.800 C 50.517 258.680,50.141 259.813,49.949 260.319 C 49.757 260.824,49.600 261.589,49.600 262.019 C 49.600 262.448,49.420 262.800,49.200 262.800 C 48.980 262.800,48.800 263.239,48.800 263.776 C 48.800 264.313,48.620 264.864,48.400 265.000 C 48.180 265.136,48.000 265.597,48.000 266.024 C 48.000 266.451,47.820 266.800,47.600 266.800 C 47.380 266.800,47.200 267.072,47.200 267.405 C 47.200 267.738,47.041 268.323,46.847 268.705 C 46.652 269.087,46.292 269.895,46.047 270.500 C 45.801 271.105,45.429 272.005,45.220 272.500 C 44.634 273.888,43.600 277.178,43.600 277.654 C 43.600 277.888,43.312 278.736,42.959 279.540 C 42.607 280.343,42.157 281.405,41.959 281.900 C 41.762 282.395,41.438 283.205,41.241 283.700 C 41.043 284.195,40.611 285.230,40.280 286.000 C 39.605 287.572,37.372 294.395,36.963 296.131 C 36.817 296.754,36.271 298.148,35.749 299.229 C 35.227 300.311,34.800 301.469,34.800 301.803 C 34.800 302.138,34.641 302.723,34.447 303.105 C 34.083 303.821,33.389 305.446,32.700 307.200 C 32.484 307.750,32.148 308.513,31.953 308.895 C 31.759 309.277,31.600 310.211,31.600 310.971 C 31.600 311.731,31.420 312.464,31.200 312.600 C 30.980 312.736,30.800 313.377,30.800 314.024 C 30.800 314.671,30.620 315.200,30.400 315.200 C 30.180 315.200,30.000 315.560,30.000 316.000 C 30.000 316.440,29.820 316.800,29.600 316.800 C 29.380 316.800,29.200 317.160,29.200 317.600 C 29.200 318.040,29.020 318.400,28.800 318.400 C 28.580 318.400,28.400 318.940,28.400 319.600 C 28.400 320.260,28.220 320.800,28.000 320.800 C 27.780 320.800,27.600 321.340,27.600 322.000 C 27.600 322.660,27.420 323.200,27.200 323.200 C 26.980 323.200,26.800 323.560,26.800 324.000 C 26.800 324.440,26.620 324.800,26.400 324.800 C 26.180 324.800,26.000 325.250,26.000 325.800 C 26.000 326.350,25.820 326.800,25.600 326.800 C 25.380 326.800,25.200 327.419,25.200 328.176 C 25.200 328.933,25.020 329.664,24.800 329.800 C 24.580 329.936,24.400 330.577,24.400 331.224 C 24.400 331.871,24.220 332.400,24.000 332.400 C 23.780 332.400,23.600 332.749,23.600 333.176 C 23.600 333.603,23.420 334.064,23.200 334.200 C 22.980 334.336,22.800 334.887,22.800 335.424 C 22.800 335.961,22.620 336.400,22.400 336.400 C 22.180 336.400,22.000 336.749,22.000 337.176 C 22.000 337.603,21.820 338.064,21.600 338.200 C 21.380 338.336,21.200 338.887,21.200 339.424 C 21.200 339.961,21.020 340.400,20.800 340.400 C 20.580 340.400,20.400 340.850,20.400 341.400 C 20.400 341.950,20.220 342.400,20.000 342.400 C 19.780 342.400,19.600 342.749,19.600 343.176 C 19.600 343.603,19.444 344.049,19.253 344.167 C 19.062 344.285,18.817 345.173,18.708 346.139 C 18.599 347.106,18.215 348.488,17.855 349.210 C 17.495 349.932,17.200 350.765,17.200 351.061 C 17.200 351.358,17.020 351.600,16.800 351.600 C 16.580 351.600,16.400 352.140,16.400 352.800 C 16.400 353.460,16.220 354.000,16.000 354.000 C 15.780 354.000,15.600 354.272,15.600 354.605 C 15.600 354.938,15.420 355.568,15.200 356.005 C 14.980 356.442,14.620 357.158,14.400 357.595 C 14.180 358.032,14.000 358.664,14.000 359.000 C 14.000 359.336,13.820 359.968,13.600 360.405 C 13.380 360.842,13.020 361.558,12.800 361.995 C 12.580 362.432,12.400 363.411,12.400 364.171 C 12.400 364.931,12.220 365.664,12.000 365.800 C 11.780 365.936,11.600 366.577,11.600 367.224 C 11.600 367.871,11.420 368.400,11.200 368.400 C 10.980 368.400,10.800 368.749,10.800 369.176 C 10.800 369.603,10.620 370.064,10.400 370.200 C 10.180 370.336,10.000 371.067,10.000 371.824 C 10.000 372.581,9.820 373.200,9.600 373.200 C 9.380 373.200,9.200 373.639,9.200 374.176 C 9.200 374.713,9.020 375.264,8.800 375.400 C 8.580 375.536,8.400 376.177,8.400 376.824 C 8.400 377.471,8.220 378.000,8.000 378.000 C 7.780 378.000,7.600 378.720,7.600 379.600 C 7.600 380.480,7.420 381.200,7.200 381.200 C 6.980 381.200,6.800 381.819,6.800 382.576 C 6.800 383.333,6.620 384.064,6.400 384.200 C 6.179 384.337,6.000 386.137,6.000 388.224 C 6.000 390.475,5.838 392.000,5.600 392.000 C 5.360 392.000,5.200 393.600,5.200 396.000 C 5.200 398.400,5.360 400.000,5.600 400.000 C 5.820 400.000,6.000 400.692,6.000 401.539 C 6.000 403.615,6.923 405.325,8.503 406.176 C 10.159 407.068,27.601 406.999,27.900 406.100 C 27.992 405.825,28.581 405.600,29.210 405.600 C 29.838 405.600,30.464 405.420,30.600 405.200 C 30.736 404.980,31.287 404.800,31.824 404.800 C 32.361 404.800,32.800 404.620,32.800 404.400 C 32.800 404.180,33.340 404.000,34.000 404.000 C 34.660 404.000,35.200 403.820,35.200 403.600 C 35.200 403.380,35.639 403.200,36.176 403.200 C 36.713 403.200,37.264 403.020,37.400 402.800 C 37.536 402.580,37.997 402.400,38.424 402.400 C 38.851 402.400,39.200 402.220,39.200 402.000 C 39.200 401.780,39.560 401.600,40.000 401.600 C 40.440 401.600,40.800 401.420,40.800 401.200 C 40.800 400.980,41.432 400.800,42.205 400.800 C 42.978 400.800,43.968 400.620,44.405 400.400 C 44.842 400.180,45.558 399.820,45.995 399.600 C 46.432 399.380,47.062 399.200,47.395 399.200 C 47.728 399.200,48.000 399.020,48.000 398.800 C 48.000 398.580,48.234 398.400,48.520 398.400 C 49.256 398.400,51.193 397.459,51.197 397.100 C 51.199 396.935,51.560 396.800,52.000 396.800 C 52.440 396.800,52.800 396.620,52.800 396.400 C 52.800 396.180,53.239 396.000,53.776 396.000 C 54.313 396.000,54.864 395.820,55.000 395.600 C 55.136 395.380,55.597 395.200,56.024 395.200 C 56.451 395.200,56.800 395.020,56.800 394.800 C 56.800 394.580,57.340 394.400,58.000 394.400 C 58.660 394.400,59.200 394.220,59.200 394.000 C 59.200 393.780,59.549 393.600,59.976 393.600 C 60.403 393.600,60.864 393.420,61.000 393.200 C 61.136 392.980,61.597 392.800,62.024 392.800 C 62.451 392.800,62.800 392.620,62.800 392.400 C 62.800 392.180,63.070 392.000,63.400 392.000 C 63.730 392.000,64.000 391.820,64.000 391.600 C 64.000 391.380,64.360 391.200,64.800 391.200 C 65.240 391.200,65.600 391.020,65.600 390.800 C 65.600 390.580,65.960 390.400,66.400 390.400 C 66.840 390.400,67.200 390.220,67.200 390.000 C 67.200 389.780,67.616 389.600,68.125 389.600 C 68.633 389.600,69.436 389.240,69.908 388.800 C 70.380 388.360,71.188 388.000,71.704 388.000 C 72.771 388.000,74.792 387.150,74.797 386.700 C 74.799 386.535,75.160 386.400,75.600 386.400 C 76.040 386.400,76.400 386.220,76.400 386.000 C 76.400 385.780,76.665 385.600,76.988 385.600 C 77.311 385.600,78.217 385.240,79.000 384.800 C 79.783 384.360,80.689 384.000,81.012 384.000 C 81.335 384.000,81.601 383.865,81.603 383.700 C 81.607 383.341,83.544 382.400,84.280 382.400 C 84.566 382.400,84.800 382.220,84.800 382.000 C 84.800 381.780,85.430 381.600,86.200 381.600 C 86.970 381.600,87.600 381.420,87.600 381.200 C 87.600 380.980,87.960 380.800,88.400 380.800 C 88.840 380.800,89.200 380.620,89.200 380.400 C 89.200 380.180,89.465 380.000,89.788 380.000 C 90.111 380.000,91.017 379.640,91.800 379.200 C 92.583 378.760,93.579 378.400,94.012 378.400 C 94.445 378.400,94.800 378.262,94.800 378.094 C 94.800 377.698,97.438 376.547,101.163 375.318 C 102.793 374.781,105.031 373.904,106.138 373.371 C 107.244 372.837,108.386 372.400,108.675 372.400 C 108.964 372.400,109.200 372.220,109.200 372.000 C 109.200 371.780,109.472 371.600,109.805 371.600 C 110.138 371.600,110.723 371.440,111.105 371.244 C 112.963 370.291,115.583 369.183,117.273 368.635 C 118.304 368.301,120.092 367.571,121.248 367.014 C 122.404 366.456,123.586 366.000,123.875 366.000 C 124.164 366.000,124.400 365.843,124.400 365.650 C 124.400 365.457,124.918 365.196,125.552 365.070 C 126.185 364.943,126.982 364.560,127.323 364.220 C 127.664 363.879,128.305 363.600,128.748 363.600 C 129.191 363.600,129.664 363.420,129.800 363.200 C 129.936 362.980,130.470 362.800,130.986 362.800 C 131.798 362.800,132.914 362.352,136.095 360.750 C 136.477 360.557,137.062 360.400,137.395 360.400 C 137.728 360.400,138.000 360.220,138.000 360.000 C 138.000 359.780,138.360 359.600,138.800 359.600 C 139.240 359.600,139.600 359.420,139.600 359.200 C 139.600 358.980,139.960 358.800,140.400 358.800 C 140.840 358.800,141.200 358.620,141.200 358.400 C 141.200 358.180,141.472 358.000,141.805 358.000 C 142.138 358.000,142.768 357.820,143.205 357.600 C 143.642 357.380,144.358 357.020,144.795 356.800 C 145.232 356.580,145.954 356.400,146.400 356.400 C 146.846 356.400,147.523 356.241,147.905 356.046 C 151.188 354.372,153.804 353.200,154.256 353.200 C 154.555 353.200,154.800 353.020,154.800 352.800 C 154.800 352.580,155.250 352.400,155.800 352.400 C 156.350 352.400,156.800 352.220,156.800 352.000 C 156.800 351.780,157.160 351.600,157.600 351.600 C 158.040 351.600,158.400 351.420,158.400 351.200 C 158.400 350.980,158.760 350.800,159.200 350.800 C 159.640 350.800,160.000 350.620,160.000 350.400 C 160.000 350.180,160.542 350.000,161.205 350.000 C 161.868 350.000,162.723 349.832,163.105 349.626 C 163.487 349.421,164.385 349.017,165.100 348.729 C 165.815 348.440,166.400 348.069,166.400 347.902 C 166.400 347.736,166.940 347.600,167.600 347.600 C 168.260 347.600,168.800 347.420,168.800 347.200 C 168.800 346.980,169.160 346.800,169.600 346.800 C 170.040 346.800,170.400 346.620,170.400 346.400 C 170.400 346.180,170.760 346.000,171.200 346.000 C 171.640 346.000,172.000 345.820,172.000 345.600 C 172.000 345.380,172.360 345.200,172.800 345.200 C 173.240 345.200,173.600 345.020,173.600 344.800 C 173.600 344.580,174.039 344.400,174.576 344.400 C 175.113 344.400,175.664 344.220,175.800 344.000 C 175.936 343.780,176.476 343.600,177.000 343.600 C 177.524 343.600,178.064 343.420,178.200 343.200 C 178.336 342.980,178.797 342.800,179.224 342.800 C 179.651 342.800,180.000 342.620,180.000 342.400 C 180.000 342.180,180.349 342.000,180.776 342.000 C 181.203 342.000,181.664 341.820,181.800 341.600 C 181.936 341.380,182.363 341.200,182.748 341.200 C 183.134 341.200,183.836 340.840,184.308 340.400 C 184.780 339.960,185.624 339.600,186.183 339.600 C 186.742 339.600,187.200 339.420,187.200 339.200 C 187.200 338.980,187.560 338.800,188.000 338.800 C 188.440 338.800,188.800 338.620,188.800 338.400 C 188.800 338.180,189.149 338.000,189.576 338.000 C 190.003 338.000,190.464 337.820,190.600 337.600 C 190.736 337.380,191.289 337.200,191.829 337.200 C 192.369 337.200,193.123 337.040,193.505 336.844 C 193.887 336.648,195.100 336.063,196.200 335.544 C 197.300 335.025,198.260 334.465,198.333 334.300 C 198.407 334.135,198.891 334.000,199.410 334.000 C 199.928 334.000,200.464 333.820,200.600 333.600 C 200.736 333.380,201.197 333.200,201.624 333.200 C 202.051 333.200,202.401 333.065,202.403 332.900 C 202.407 332.541,204.344 331.600,205.080 331.600 C 205.366 331.600,205.600 331.420,205.600 331.200 C 205.600 330.980,206.230 330.800,207.000 330.800 C 207.770 330.800,208.400 330.620,208.400 330.400 C 208.400 330.180,208.665 330.000,208.988 330.000 C 209.311 330.000,210.217 329.640,211.000 329.200 C 211.783 328.760,212.689 328.400,213.012 328.400 C 213.335 328.400,213.600 328.220,213.600 328.000 C 213.600 327.780,213.960 327.600,214.400 327.600 C 214.840 327.600,215.200 327.420,215.200 327.200 C 215.200 326.980,215.470 326.800,215.800 326.800 C 216.130 326.800,216.400 326.620,216.400 326.400 C 216.400 326.180,216.670 326.000,217.000 326.000 C 217.330 326.000,217.600 325.820,217.600 325.600 C 217.600 325.380,217.960 325.200,218.400 325.200 C 218.840 325.200,219.200 325.020,219.200 324.800 C 219.200 324.580,219.695 324.393,220.300 324.384 C 220.922 324.375,222.002 323.853,222.785 323.184 C 223.547 322.533,224.402 322.000,224.685 322.000 C 224.968 322.000,225.200 321.850,225.200 321.668 C 225.200 321.485,225.695 321.080,226.300 320.768 C 226.905 320.455,227.877 319.705,228.460 319.100 C 229.044 318.495,229.724 318.000,229.972 318.000 C 230.572 318.000,235.600 313.052,235.600 312.462 C 235.600 312.208,235.787 312.000,236.016 312.000 C 236.568 312.000,239.600 308.981,239.600 308.431 C 239.600 308.194,239.780 308.000,240.000 308.000 C 240.220 308.000,240.400 307.812,240.400 307.583 C 240.400 307.354,240.760 306.780,241.200 306.308 C 241.640 305.836,242.000 305.206,242.000 304.908 C 242.000 304.610,242.360 303.980,242.800 303.508 C 243.240 303.036,243.600 302.413,243.600 302.125 C 243.600 301.836,243.780 301.600,244.000 301.600 C 244.220 301.600,244.400 301.240,244.400 300.800 C 244.400 300.360,244.546 300.000,244.725 300.000 C 244.904 300.000,245.298 299.370,245.600 298.600 C 245.902 297.830,246.296 297.200,246.475 297.200 C 246.654 297.200,246.800 296.851,246.800 296.424 C 246.800 295.997,246.980 295.536,247.200 295.400 C 247.420 295.264,247.600 294.713,247.600 294.176 C 247.600 293.639,247.780 293.200,248.000 293.200 C 248.220 293.200,248.400 292.570,248.400 291.800 C 248.400 291.030,248.580 290.400,248.800 290.400 C 249.020 290.400,249.200 289.860,249.200 289.200 C 249.200 288.540,249.380 288.000,249.600 288.000 C 249.820 288.000,250.000 287.638,250.000 287.195 C 250.000 286.752,250.180 286.032,250.400 285.595 C 250.620 285.158,250.980 284.442,251.200 284.005 C 252.363 281.695,251.358 280.366,247.742 279.434 C 242.593 278.106,237.576 278.847,237.032 281.015 C 235.162 288.464,227.778 297.486,220.600 301.091 C 212.266 305.276,196.356 307.386,186.200 305.653 C 159.223 301.048,137.758 286.863,117.722 260.400 C 103.559 241.692,96.975 215.139,101.657 195.600 C 106.046 177.283,113.834 169.154,130.400 165.602 C 131.610 165.343,133.251 164.966,134.046 164.765 C 134.842 164.564,136.069 164.400,136.773 164.400 C 139.902 164.400,139.950 164.119,137.925 157.600 C 135.850 150.918,135.853 150.922,132.600 151.124 M165.402 153.193 C 165.264 153.629,165.694 156.284,166.357 159.093 C 167.021 161.902,167.666 164.852,167.791 165.648 C 168.012 167.068,168.090 167.123,171.708 168.415 C 179.618 171.239,190.093 177.217,197.351 183.050 L 200.502 185.582 202.551 183.733 C 203.678 182.716,206.085 180.893,207.900 179.682 C 209.715 178.471,211.200 177.218,211.200 176.897 C 211.200 176.205,206.822 172.000,206.101 172.000 C 205.825 172.000,205.600 171.820,205.600 171.600 C 205.600 171.380,205.306 171.200,204.947 171.200 C 204.588 171.200,204.003 170.876,203.647 170.481 C 203.291 170.086,202.370 169.327,201.600 168.794 C 200.830 168.262,199.962 167.595,199.671 167.313 C 199.381 167.031,199.003 166.800,198.833 166.800 C 198.662 166.800,198.102 166.435,197.587 165.989 C 197.073 165.543,196.197 165.064,195.640 164.924 C 195.083 164.784,194.272 164.339,193.838 163.935 C 193.404 163.531,192.813 163.200,192.525 163.200 C 192.236 163.200,192.000 163.020,192.000 162.800 C 192.000 162.580,191.640 162.400,191.200 162.400 C 190.760 162.400,190.400 162.239,190.400 162.042 C 190.400 161.570,184.320 158.654,181.900 157.966 C 180.855 157.669,180.000 157.285,180.000 157.113 C 180.000 156.941,179.764 156.800,179.475 156.800 C 179.186 156.800,178.205 156.440,177.294 156.000 C 176.384 155.560,175.371 155.200,175.043 155.200 C 174.715 155.200,174.336 155.020,174.200 154.800 C 174.064 154.580,173.549 154.400,173.056 154.400 C 172.563 154.400,171.989 154.247,171.780 154.059 C 171.391 153.711,166.905 152.400,166.101 152.400 C 165.855 152.400,165.541 152.757,165.402 153.193 M230.800 203.076 C 227.201 203.679,220.177 206.908,220.687 207.726 C 220.859 208.002,221.918 209.571,223.040 211.214 C 230.769 222.528,236.225 234.730,238.684 246.200 L 239.028 247.800 243.814 248.031 C 246.446 248.158,249.549 248.492,250.708 248.773 C 252.376 249.177,252.941 249.181,253.408 248.793 C 254.082 248.234,254.230 244.989,253.600 244.600 C 253.380 244.464,253.200 243.463,253.200 242.376 C 253.200 241.289,253.020 240.400,252.800 240.400 C 252.580 240.400,252.400 239.680,252.400 238.800 C 252.400 237.920,252.220 237.200,252.000 237.200 C 251.780 237.200,251.600 236.660,251.600 236.000 C 251.600 235.340,251.420 234.800,251.200 234.800 C 250.980 234.800,250.800 234.181,250.800 233.424 C 250.800 232.667,250.620 231.936,250.400 231.800 C 250.180 231.664,250.000 231.124,250.000 230.600 C 250.000 230.076,249.820 229.536,249.600 229.400 C 249.380 229.264,249.200 228.803,249.200 228.376 C 249.200 227.949,249.020 227.600,248.800 227.600 C 248.580 227.600,248.400 226.970,248.400 226.200 C 248.400 225.430,248.220 224.800,248.000 224.800 C 247.780 224.800,247.600 224.469,247.600 224.064 C 247.600 223.390,244.966 217.950,242.867 214.288 C 242.390 213.456,242.000 212.545,242.000 212.263 C 242.000 211.981,241.640 211.364,241.200 210.892 C 240.760 210.420,240.400 209.846,240.400 209.617 C 240.400 209.388,240.264 209.200,240.098 209.200 C 239.931 209.200,239.540 208.615,239.228 207.900 C 238.916 207.185,238.332 206.309,237.930 205.953 C 237.529 205.597,237.200 205.100,237.200 204.847 C 237.200 203.487,233.863 202.564,230.800 203.076 M358.880 305.280 C 358.295 305.865,358.222 312.062,358.793 312.633 C 359.025 312.865,359.230 317.296,359.293 323.413 L 359.400 333.800 366.100 333.910 C 370.114 333.975,372.800 334.176,372.800 334.410 C 372.800 334.640,374.598 334.800,377.176 334.800 C 379.583 334.800,381.647 334.953,381.762 335.139 C 381.877 335.325,383.278 335.516,384.873 335.563 C 386.469 335.609,387.961 335.795,388.188 335.975 C 388.414 336.155,389.410 336.279,390.400 336.251 L 392.200 336.200 392.325 334.400 C 392.394 333.410,392.619 332.429,392.825 332.220 C 393.031 332.011,393.200 330.897,393.200 329.744 C 393.200 328.591,393.380 327.536,393.600 327.400 C 393.829 327.258,394.000 325.196,394.000 322.576 C 394.000 319.792,394.157 318.000,394.400 318.000 C 394.620 318.000,394.800 317.021,394.800 315.824 C 394.800 314.627,394.980 313.536,395.200 313.400 C 395.420 313.264,395.600 311.813,395.600 310.176 L 395.600 307.200 394.080 307.200 C 393.244 307.200,392.318 306.975,392.021 306.700 C 391.590 306.300,391.539 306.300,391.765 306.700 C 391.920 306.975,391.857 307.200,391.624 307.200 C 391.391 307.200,391.200 307.020,391.200 306.800 C 391.200 306.575,390.075 306.400,388.624 306.400 C 387.207 306.400,385.936 306.220,385.800 306.000 C 385.658 305.770,383.551 305.600,380.843 305.600 C 378.253 305.600,376.013 305.480,375.867 305.334 C 375.312 304.779,360.800 304.693,360.800 305.245 C 360.800 305.645,360.693 305.653,360.320 305.280 C 360.056 305.016,359.732 304.800,359.600 304.800 C 359.468 304.800,359.144 305.016,358.880 305.280 " stroke="none" fill="#fbc304" fill-rule="evenodd"></path></g></svg>