<?xml version="1.0" encoding="iso-8859-1"?>
<!-- Uploaded to: SVG Repo, www.svgrepo.com, Generator: SVG Repo Mixer Tools -->
<svg height="800px" width="800px" version="1.1" id="Capa_1" xmlns="http://www.w3.org/2000/svg" xmlns:xlink="http://www.w3.org/1999/xlink" 
	 viewBox="0 0 19.597 19.597" xml:space="preserve">
<g>
	<path style="fill:#030104;" d="M13.516,0.129c0.368,1.167-0.596,5.196-0.596,5.196L9.857,8.388C9.855,8.39,9.853,8.392,9.851,8.393
		c0,0.001-0.002,0.003-0.004,0.004l-1.3,1.302L7.88,9.032l0.063-0.063C8.012,8.9,7.981,8.759,7.876,8.651
		C7.77,8.546,7.626,8.515,7.558,8.583L6.842,9.3C6.774,9.368,6.805,9.51,6.909,9.617c0.106,0.106,0.25,0.137,0.318,0.068L7.29,9.622
		l0.667,0.666l-0.536,0.536l-0.667-0.665l0.057-0.06c0.069-0.067,0.039-0.21-0.067-0.316S6.496,9.646,6.427,9.716l-0.716,0.715
		c-0.069,0.069-0.039,0.213,0.068,0.318c0.105,0.105,0.249,0.136,0.317,0.068l0.068-0.068l0.667,0.667l-0.51,0.508l-0.666-0.666
		l0.063-0.063c0.069-0.069,0.039-0.211-0.067-0.317s-0.249-0.137-0.317-0.068l-0.716,0.715c-0.069,0.07-0.039,0.213,0.067,0.318
		s0.249,0.137,0.318,0.068l0.063-0.063l0.666,0.667L4.757,13.49c-0.034,0.033-0.062,0.07-0.087,0.106
		c-0.038,0.025-0.073,0.054-0.107,0.087c-0.043,0.043-0.081,0.09-0.122,0.135l-0.004-0.005L0.781,17.47
		c-0.112-0.087-0.271-0.083-0.373,0.02c-0.11,0.11-0.111,0.291,0,0.403l1.151,1.15c0.111,0.111,0.293,0.111,0.404,0
		c0.111-0.11,0.11-0.291-0.001-0.403l-0.119-0.118l1.765-1.766c0.121,0.671,0.439,1.312,0.956,1.829
		c1.334,1.334,3.491,1.349,4.847,0.05l0.001,0.004c0.006-0.007,0.011-0.014,0.017-0.021c0.013-0.012,0.025-0.021,0.038-0.033
		c0.03-0.031,0.055-0.064,0.081-0.099c0.005-0.006,0.009-0.01,0.017-0.017c0.032-0.023,0.066-0.049,0.096-0.078l0.004-0.021
		c0.188-0.187,0.529-0.525,0.946-0.94l0.974,0.973c0.145,0.146,0.402,0.123,0.575-0.05c0.174-0.174,0.195-0.432,0.051-0.576
		l-0.972-0.973c0.148-0.147,0.301-0.299,0.455-0.453l0.971,0.971c0.146,0.146,0.404,0.123,0.577-0.05
		c0.173-0.174,0.195-0.431,0.05-0.577l-0.97-0.971c0.178-0.177,0.354-0.353,0.525-0.524l0.971,0.97
		c0.145,0.146,0.403,0.122,0.576-0.05c0.173-0.174,0.195-0.432,0.05-0.576l-0.969-0.97c0.729-0.728,1.271-1.268,1.282-1.278
		c1.35-1.352,1.35-3.551-0.001-4.902c-0.497-0.496-1.108-0.81-1.751-0.94l1.036-1.037c0,0,3.851-1.043,5.053-0.438
		C20.496,6.104,13.146-1.037,13.516,0.129z M8.444,17.413c-0.029,0.021-0.059,0.042-0.084,0.068c-0.742,0.742-1.95,0.742-2.692,0
		c-0.743-0.742-0.743-1.95,0-2.693c0.001-0.001,0.002-0.001,0.003-0.002l0.191-0.19l0.313-0.314l0.641-0.642l2.699,2.699
		L8.444,17.413z M10.559,15.301c-0.038,0.026-0.107,0.088-0.107,0.088l-0.308,0.319l-0.002,0.003l-2.699-2.698l0.455-0.455
		L10.6,15.26C10.576,15.283,10.56,15.3,10.559,15.301z M11.222,14.629l-2.698-2.697l0.526-0.525l2.697,2.695
		C11.559,14.289,11.381,14.468,11.222,14.629z M13.65,9.5c0.681,0.681,0.729,1.751,0.159,2.496l-1.027,1.066
		c-0.13,0.13-0.27,0.27-0.411,0.412L9.677,10.78l0.774-0.773l0.312-0.314l0.192-0.19c0.001-0.002,0.001-0.002,0.002-0.003
		C11.699,8.756,12.906,8.756,13.65,9.5z"/>
</g>
</svg>